<?xml version="1.0" encoding="UTF-8" standalone="no"?>
<!-- Created with Inkscape (http://www.inkscape.org/) -->

<svg
   xmlns:dc="http://purl.org/dc/elements/1.1/"
   xmlns:cc="http://creativecommons.org/ns#"
   xmlns:rdf="http://www.w3.org/1999/02/22-rdf-syntax-ns#"
   xmlns:svg="http://www.w3.org/2000/svg"
   xmlns="http://www.w3.org/2000/svg"
   xmlns:sodipodi="http://sodipodi.sourceforge.net/DTD/sodipodi-0.dtd"
   xmlns:inkscape="http://www.inkscape.org/namespaces/inkscape"
   width="210mm"
   height="297mm"
   viewBox="0 0 210 297"
   version="1.1"
   id="svg8"
   inkscape:version="0.92.3 (2405546, 2018-03-11)"
   sodipodi:docname="background.svg"
   inkscape:export-filename="F:\My Documents\GitHub\LIT230-Final-Project\Assets\Backgrounds\mountains_fixed.png"
   inkscape:export-xdpi="25.401064"
   inkscape:export-ydpi="25.401064">
  <defs
     id="defs2">
    <filter
       inkscape:collect="always"
       style="color-interpolation-filters:sRGB"
       id="filter5364"
       x="-0.20375501"
       width="1.40751"
       y="-0.20424558"
       height="1.4084912">
      <feGaussianBlur
         inkscape:collect="always"
         stdDeviation="0.23116216"
         id="feGaussianBlur5366" />
    </filter>
    <filter
       inkscape:collect="always"
       style="color-interpolation-filters:sRGB"
       id="filter8488"
       x="-0.36009503"
       width="1.7201901"
       y="-0.36009503"
       height="1.7201901">
      <feGaussianBlur
         inkscape:collect="always"
         stdDeviation="15.799798"
         id="feGaussianBlur8490" />
    </filter>
  </defs>
  <sodipodi:namedview
     id="base"
     pagecolor="#ffffff"
     bordercolor="#666666"
     borderopacity="1.0"
     inkscape:pageopacity="0.0"
     inkscape:pageshadow="2"
     inkscape:zoom="0.24748737"
     inkscape:cx="1147.8646"
     inkscape:cy="1293.8566"
     inkscape:document-units="mm"
     inkscape:current-layer="layer2"
     showgrid="false"
     showborder="false"
     inkscape:window-width="1920"
     inkscape:window-height="1017"
     inkscape:window-x="1912"
     inkscape:window-y="-8"
     inkscape:window-maximized="1"
     inkscape:snap-nodes="true"
     inkscape:snap-global="false"
     inkscape:measure-start="1733.42,2820.35"
     inkscape:measure-end="1547.55,2614.27" />
  <metadata
     id="metadata5">
    <rdf:RDF>
      <cc:Work
         rdf:about="">
        <dc:format>image/svg+xml</dc:format>
        <dc:type
           rdf:resource="http://purl.org/dc/dcmitype/StillImage" />
        <dc:title></dc:title>
      </cc:Work>
    </rdf:RDF>
  </metadata>
  <g
     inkscape:label="sky"
     inkscape:groupmode="layer"
     id="layer1"
     style="display:inline"
     sodipodi:insensitive="true">
    <rect
       id="rect3715"
       width="1280"
       height="720"
       x="-321.55759"
       y="-396.77881"
       style="fill:#1a1a5b;fill-opacity:1;stroke-width:0.48588106"
       inkscape:export-xdpi="25.4"
       inkscape:export-ydpi="25.4" />
    <path
       sodipodi:type="star"
       style="fill:#c8dff7;fill-opacity:1;stroke:none;stroke-width:0.07552937;stroke-opacity:1;filter:url(#filter5364)"
       id="path4524"
       sodipodi:sides="5"
       sodipodi:cx="-236.67639"
       sodipodi:cy="-315.80295"
       sodipodi:r1="1.4476184"
       sodipodi:r2="0.72380924"
       sodipodi:arg1="0.46364761"
       sodipodi:arg2="1.0919661"
       inkscape:flatsided="false"
       inkscape:rounded="0"
       inkscape:randomized="0"
       d="m -235.3816,-315.15555 -0.9613,-0.005 -0.54909,0.78907 -0.29231,-0.9158 -0.92013,-0.27837 0.78064,-0.56101 -0.0196,-0.96111 0.77478,0.56908 0.90802,-0.31563 -0.3018,0.91271 z"
       inkscape:transform-center-x="0.094518036"
       inkscape:transform-center-y="0.10401309"
       transform="matrix(1.4185624,0,0,1.4185624,99.893763,149.6217)" />
    <path
       inkscape:transform-center-y="0.10401264"
       inkscape:transform-center-x="0.094515522"
       d="m -183.79856,-324.50998 -0.9613,-0.005 -0.54909,0.78906 -0.29231,-0.91579 -0.92013,-0.27837 0.78064,-0.56101 -0.0196,-0.96111 0.77478,0.56907 0.90802,-0.31562 -0.30181,0.91271 z"
       inkscape:randomized="0"
       inkscape:rounded="0"
       inkscape:flatsided="false"
       sodipodi:arg2="1.0919661"
       sodipodi:arg1="0.46364761"
       sodipodi:r2="0.72380924"
       sodipodi:r1="1.4476184"
       sodipodi:cy="-325.15738"
       sodipodi:cx="-185.09335"
       sodipodi:sides="5"
       id="path5368"
       style="fill:#c8dff7;fill-opacity:1;stroke:none;stroke-width:0.07552937;stroke-opacity:1;filter:url(#filter5364)"
       sodipodi:type="star"
       transform="matrix(1.4185624,0,0,1.4185624,99.893763,149.6217)" />
    <path
       sodipodi:type="star"
       style="fill:#c8dff7;fill-opacity:1;stroke:none;stroke-width:0.07552937;stroke-opacity:1;filter:url(#filter5364)"
       id="path5370"
       sodipodi:sides="5"
       sodipodi:cx="-78.185555"
       sodipodi:cy="-316.60477"
       sodipodi:r1="1.4476184"
       sodipodi:r2="0.72380924"
       sodipodi:arg1="0.46364761"
       sodipodi:arg2="1.0919661"
       inkscape:flatsided="false"
       inkscape:rounded="0"
       inkscape:randomized="0"
       d="m -76.890765,-315.95737 -0.961301,-0.005 -0.549085,0.78907 -0.292314,-0.9158 -0.920125,-0.27837 0.780641,-0.561 -0.01958,-0.96112 0.774776,0.56908 0.908022,-0.31563 -0.301803,0.91271 z"
       inkscape:transform-center-x="0.094510309"
       inkscape:transform-center-y="0.10401305"
       transform="matrix(1.4185624,0,0,1.4185624,99.893763,149.6217)" />
    <path
       inkscape:transform-center-y="0.10401115"
       inkscape:transform-center-x="0.094491624"
       d="m 306.37374,-354.97873 -0.9613,-0.005 -0.54909,0.78906 -0.29231,-0.91579 -0.92013,-0.27837 0.78064,-0.56101 -0.0196,-0.96111 0.77478,0.56907 0.90802,-0.31562 -0.3018,0.91271 z"
       inkscape:randomized="0"
       inkscape:rounded="0"
       inkscape:flatsided="false"
       sodipodi:arg2="1.0919661"
       sodipodi:arg1="0.46364761"
       sodipodi:r2="0.72380924"
       sodipodi:r1="1.4476184"
       sodipodi:cy="-355.62613"
       sodipodi:cx="305.07895"
       sodipodi:sides="5"
       id="path5372"
       style="fill:#c8dff7;fill-opacity:1;stroke:none;stroke-width:0.07552937;stroke-opacity:1;filter:url(#filter5364)"
       sodipodi:type="star"
       transform="matrix(1.4185624,0,0,1.4185624,99.893763,149.6217)" />
    <path
       sodipodi:type="star"
       style="fill:#c8dff7;fill-opacity:1;stroke:none;stroke-width:0.07552937;stroke-opacity:1;filter:url(#filter5364)"
       id="path5374"
       sodipodi:sides="5"
       sodipodi:cx="362.2746"
       sodipodi:cy="-264.21994"
       sodipodi:r1="1.4476184"
       sodipodi:r2="0.72380924"
       sodipodi:arg1="0.46364761"
       sodipodi:arg2="1.0919661"
       inkscape:flatsided="false"
       inkscape:rounded="0"
       inkscape:randomized="0"
       d="m 363.56939,-263.57255 -0.9613,-0.005 -0.54909,0.78906 -0.29231,-0.91579 -0.92013,-0.27838 0.78064,-0.561 -0.0196,-0.96111 0.77478,0.56907 0.90802,-0.31562 -0.30181,0.91271 z"
       inkscape:transform-center-x="0.094488836"
       inkscape:transform-center-y="0.10401561"
       transform="matrix(1.4185624,0,0,1.4185624,128.61995,110.31218)" />
    <path
       inkscape:transform-center-y="0.10401556"
       inkscape:transform-center-x="0.09451328"
       d="m -137.82821,-264.64161 -0.9613,-0.005 -0.54909,0.78907 -0.29231,-0.91579 -0.92013,-0.27838 0.78064,-0.561 -0.0196,-0.96111 0.77478,0.56907 0.90802,-0.31562 -0.3018,0.91271 z"
       inkscape:randomized="0"
       inkscape:rounded="0"
       inkscape:flatsided="false"
       sodipodi:arg2="1.0919661"
       sodipodi:arg1="0.46364761"
       sodipodi:r2="0.72380924"
       sodipodi:r1="1.4476184"
       sodipodi:cy="-265.289"
       sodipodi:cx="-139.123"
       sodipodi:sides="5"
       id="path5376"
       style="fill:#c8dff7;fill-opacity:1;stroke:none;stroke-width:0.07552937;stroke-opacity:1;filter:url(#filter5364)"
       sodipodi:type="star"
       transform="matrix(1.4185624,0,0,1.4185624,99.893763,149.6217)" />
    <path
       sodipodi:type="star"
       style="fill:#c8dff7;fill-opacity:1;stroke:none;stroke-width:0.07552937;stroke-opacity:1;filter:url(#filter5364)"
       id="path5378"
       sodipodi:sides="5"
       sodipodi:cx="204.05106"
       sodipodi:cy="-334.24454"
       sodipodi:r1="1.4476184"
       sodipodi:r2="0.72380924"
       sodipodi:arg1="0.46364761"
       sodipodi:arg2="1.0919661"
       inkscape:flatsided="false"
       inkscape:rounded="0"
       inkscape:randomized="0"
       d="m 205.34585,-333.59714 -0.96131,-0.005 -0.54908,0.78907 -0.29231,-0.9158 -0.92013,-0.27837 0.78064,-0.561 -0.0196,-0.96112 0.77477,0.56908 0.90803,-0.31563 -0.30181,0.91271 z"
       inkscape:transform-center-x="0.09449655"
       inkscape:transform-center-y="0.10401219"
       transform="matrix(1.4185624,0,0,1.4185624,99.893763,149.6217)" />
    <path
       inkscape:transform-center-y="0.10401493"
       inkscape:transform-center-x="0.094510101"
       d="m -72.614451,-277.47056 -0.961301,-0.005 -0.549086,0.78906 -0.292313,-0.91579 -0.920125,-0.27838 0.780641,-0.561 -0.01958,-0.96111 0.774776,0.56907 0.908022,-0.31562 -0.301803,0.91271 z"
       inkscape:randomized="0"
       inkscape:rounded="0"
       inkscape:flatsided="false"
       sodipodi:arg2="1.0919661"
       sodipodi:arg1="0.46364761"
       sodipodi:r2="0.72380924"
       sodipodi:r1="1.4476184"
       sodipodi:cy="-278.11795"
       sodipodi:cx="-73.909241"
       sodipodi:sides="5"
       id="path5380"
       style="fill:#c8dff7;fill-opacity:1;stroke:none;stroke-width:0.07552937;stroke-opacity:1;filter:url(#filter5364)"
       sodipodi:type="star"
       transform="matrix(1.4185624,0,0,1.4185624,99.893763,149.6217)" />
    <path
       sodipodi:type="star"
       style="fill:#c8dff7;fill-opacity:1;stroke:none;stroke-width:0.07552937;stroke-opacity:1;filter:url(#filter5364)"
       id="path5382"
       sodipodi:sides="5"
       sodipodi:cx="-161.57365"
       sodipodi:cy="-300.5686"
       sodipodi:r1="1.4476184"
       sodipodi:r2="0.72380924"
       sodipodi:arg1="0.46364761"
       sodipodi:arg2="1.0919661"
       inkscape:flatsided="false"
       inkscape:rounded="0"
       inkscape:randomized="0"
       d="m -160.27886,-299.92121 -0.96131,-0.005 -0.54908,0.78907 -0.29231,-0.91579 -0.92013,-0.27838 0.78064,-0.561 -0.0196,-0.96111 0.77477,0.56907 0.90803,-0.31563 -0.30181,0.91271 z"
       inkscape:transform-center-x="0.094514375"
       inkscape:transform-center-y="0.10401384"
       transform="matrix(1.4185624,0,0,1.4185624,99.893763,149.6217)" />
    <path
       inkscape:transform-center-y="0.10401657"
       inkscape:transform-center-x="0.094507104"
       d="m -11.142452,-243.79459 -0.961301,-0.005 -0.549086,0.78907 -0.292313,-0.9158 -0.920125,-0.27837 0.780641,-0.561 -0.01958,-0.96112 0.774776,0.56908 0.908022,-0.31563 -0.301803,0.91271 z"
       inkscape:randomized="0"
       inkscape:rounded="0"
       inkscape:flatsided="false"
       sodipodi:arg2="1.0919661"
       sodipodi:arg1="0.46364761"
       sodipodi:r2="0.72380924"
       sodipodi:r1="1.4476184"
       sodipodi:cy="-244.44199"
       sodipodi:cx="-12.437242"
       sodipodi:sides="5"
       id="path5384"
       style="fill:#c8dff7;fill-opacity:1;stroke:none;stroke-width:0.07552937;stroke-opacity:1;filter:url(#filter5364)"
       sodipodi:type="star"
       transform="matrix(1.4185624,0,0,1.4185624,99.893763,149.6217)" />
    <path
       sodipodi:type="star"
       style="fill:#c8dff7;fill-opacity:1;stroke:none;stroke-width:0.07552937;stroke-opacity:1;filter:url(#filter5364)"
       id="path5386"
       sodipodi:sides="5"
       sodipodi:cx="126.92548"
       sodipodi:cy="-293.05356"
       sodipodi:r1="1.4476184"
       sodipodi:r2="0.72380924"
       sodipodi:arg1="0.46364761"
       sodipodi:arg2="1.0919661"
       inkscape:flatsided="false"
       inkscape:rounded="0"
       inkscape:randomized="0"
       d="m 128.22027,-292.40616 -0.9613,-0.005 -0.54908,0.78907 -0.29232,-0.9158 -0.92012,-0.27837 0.78064,-0.56101 -0.0196,-0.96111 0.77477,0.56907 0.90802,-0.31562 -0.3018,0.91271 z"
       inkscape:transform-center-x="0.09450031"
       inkscape:transform-center-y="0.1040142"
       transform="matrix(1.4185624,0,0,1.4185624,99.893763,149.6217)" />
    <path
       inkscape:transform-center-y="0.10401216"
       inkscape:transform-center-x="0.094504256"
       d="m 47.267735,-334.33085 -0.9613,-0.005 -0.549086,0.78907 -0.292313,-0.91579 -0.920125,-0.27838 0.78064,-0.561 -0.01958,-0.96111 0.774776,0.56907 0.908022,-0.31562 -0.301803,0.91271 z"
       inkscape:randomized="0"
       inkscape:rounded="0"
       inkscape:flatsided="false"
       sodipodi:arg2="1.0919661"
       sodipodi:arg1="0.46364761"
       sodipodi:r2="0.72380924"
       sodipodi:r1="1.4476184"
       sodipodi:cy="-334.97824"
       sodipodi:cx="45.972946"
       sodipodi:sides="5"
       id="path5388"
       style="fill:#c8dff7;fill-opacity:1;stroke:none;stroke-width:0.07552937;stroke-opacity:1;filter:url(#filter5364)"
       sodipodi:type="star"
       transform="matrix(1.4185624,0,0,1.4185624,99.893763,149.6217)" />
    <path
       inkscape:transform-center-y="0.10401582"
       inkscape:transform-center-x="0.09449335"
       d="m 270.96441,-259.18879 -0.9613,-0.005 -0.54909,0.78907 -0.29231,-0.91579 -0.92013,-0.27838 0.78064,-0.561 -0.0196,-0.96111 0.77478,0.56907 0.90802,-0.31562 -0.30181,0.91271 z"
       inkscape:randomized="0"
       inkscape:rounded="0"
       inkscape:flatsided="false"
       sodipodi:arg2="1.0919661"
       sodipodi:arg1="0.46364761"
       sodipodi:r2="0.72380924"
       sodipodi:r1="1.4476184"
       sodipodi:cy="-259.83618"
       sodipodi:cx="269.66962"
       sodipodi:sides="5"
       id="path5390"
       style="fill:#c8dff7;fill-opacity:1;stroke:none;stroke-width:0.07552937;stroke-opacity:1;filter:url(#filter5364)"
       sodipodi:type="star"
       transform="matrix(1.4185624,0,0,1.4185624,99.893763,149.6217)" />
    <circle
       style="fill:#b3b3b3;fill-opacity:0.89411765;stroke:none;stroke-width:0.34291393;stroke-opacity:1;filter:url(#filter8488)"
       id="path5392"
       cy="11.823415"
       cx="416.67316"
       transform="matrix(1.9668382,0,0,1.9902263,-467.09179,-312.75903)"
       r="52.652096" />
    <path
       transform="matrix(1.4185624,0,0,1.4185624,361.45329,137.52646)"
       inkscape:transform-center-y="0.10401561"
       inkscape:transform-center-x="0.094488836"
       d="m 363.56939,-263.57255 -0.9613,-0.005 -0.54909,0.78906 -0.29231,-0.91579 -0.92013,-0.27838 0.78064,-0.561 -0.0196,-0.96111 0.77478,0.56907 0.90802,-0.31562 -0.30181,0.91271 z"
       inkscape:randomized="0"
       inkscape:rounded="0"
       inkscape:flatsided="false"
       sodipodi:arg2="1.0919661"
       sodipodi:arg1="0.46364761"
       sodipodi:r2="0.72380924"
       sodipodi:r1="1.4476184"
       sodipodi:cy="-264.21994"
       sodipodi:cx="362.2746"
       sodipodi:sides="5"
       id="path7688"
       style="fill:#c8dff7;fill-opacity:1;stroke:none;stroke-width:0.07552937;stroke-opacity:1;filter:url(#filter5364)"
       sodipodi:type="star" />
    <path
       sodipodi:type="star"
       style="fill:#c8dff7;fill-opacity:1;stroke:none;stroke-width:0.07552937;stroke-opacity:1;filter:url(#filter5364)"
       id="path7690"
       sodipodi:sides="5"
       sodipodi:cx="362.2746"
       sodipodi:cy="-264.21994"
       sodipodi:r1="1.4476184"
       sodipodi:r2="0.72380924"
       sodipodi:arg1="0.46364761"
       sodipodi:arg2="1.0919661"
       inkscape:flatsided="false"
       inkscape:rounded="0"
       inkscape:randomized="0"
       d="m 363.56939,-263.57255 -0.9613,-0.005 -0.54909,0.78906 -0.29231,-0.91579 -0.92013,-0.27838 0.78064,-0.561 -0.0196,-0.96111 0.77478,0.56907 0.90802,-0.31562 -0.30181,0.91271 z"
       inkscape:transform-center-x="0.094488836"
       inkscape:transform-center-y="0.10401561"
       transform="matrix(1.4185624,0,0,1.4185624,232.94138,23.377651)" />
  </g>
  <g
     inkscape:groupmode="layer"
     id="layer2"
     inkscape:label="mtns"
     style="display:inline"
     sodipodi:insensitive="true">
    <path
       style="fill:#414a73;fill-opacity:0.73869348;stroke:#000000;stroke-width:0.26458332px;stroke-linecap:butt;stroke-linejoin:miter;stroke-opacity:1"
       d="m 848.31349,140.19011 c 0,0 13.69546,-65.655017 65.17295,-118.691572 19.74358,-20.341542 44.66141,-58.240856 44.66141,-58.240856 l 0.0462,32.698429 -0.0726,143.848259 z"
       id="path7686"
       inkscape:connector-curvature="0"
       sodipodi:nodetypes="cscccc" />
    <path
       sodipodi:nodetypes="ccsscc"
       inkscape:connector-curvature="0"
       id="path7684"
       d="m -321.32084,140.10058 0.12102,-135.54612 c 0,0 21.94208,-32.366808 36.85297,-33.813231 20.79489,-2.017197 34.73272,10.480172 54.12401,34.491035 39.91536,49.424393 78.94827,133.354226 78.94827,133.354226 z"
       style="fill:#414a73;fill-opacity:0.73869348;stroke:#000000;stroke-width:0.22876756px;stroke-linecap:butt;stroke-linejoin:miter;stroke-opacity:1" />
    <path
       sodipodi:nodetypes="cssscc"
       inkscape:connector-curvature="0"
       id="path7682"
       d="m 386.47174,127.36117 c 0,0 13.69546,-65.655014 65.17295,-118.691569 19.74358,-20.341542 76.31258,-116.662811 96.25784,-118.109231 27.81587,-2.0172 47.52862,78.901172 73.46699,102.912034 53.39199,49.424394 105.60359,133.354226 105.60359,133.354226 z"
       style="fill:#414a73;fill-opacity:0.73869348;stroke:#000000;stroke-width:0.26458332px;stroke-linecap:butt;stroke-linejoin:miter;stroke-opacity:1" />
    <path
       style="fill:#414a73;fill-opacity:0.73869348;stroke:#000000;stroke-width:0.26458332px;stroke-linecap:butt;stroke-linejoin:miter;stroke-opacity:1"
       d="m -22.450641,105.44507 c 0,0 13.6954608,-65.655016 65.172951,-118.691571 19.743581,-20.341542 77.38166,-48.241808 97.32692,-49.688231 27.81587,-2.017197 46.45954,10.480172 72.39791,34.491035 53.39199,49.424393 105.60359,133.354227 105.60359,133.354227 z"
       id="path7680"
       inkscape:connector-curvature="0"
       sodipodi:nodetypes="cssscc" />
    <path
       style="fill:#414a73;fill-opacity:1;stroke:#000000;stroke-width:0.26528871px;stroke-linecap:butt;stroke-linejoin:miter;stroke-opacity:1"
       d="m -321.32084,140.10058 c 0,0 116.90436,-196.059452 215.23683,-239.639197 42.863924,-18.996763 65.201783,37.19738 117.060047,75.041358 83.248835,60.751496 137.227293,125.099479 137.227293,125.099479 0,0 41.52823,-101.50301 119.98974,-153.227919 20.04495,-13.214417 29.98109,-35.495711 41.98851,-47.727051 23.3558,-23.79134 58.55418,-37.83285 86.1393,-47.05204 23.84641,-7.96968 25.49891,6.89331 43.02489,27.64153 23.4693,27.784266 34.58839,83.386513 51.38516,128.784927 26.06542,70.449781 49.2231,90.609753 49.2231,90.609753 0,0 23.48206,-28.390563 53.30876,-97.033641 25.82649,-59.437007 61.72572,-123.504159 92.53368,-173.331319 19.06127,-30.82868 55.64206,-66.5453 70.96605,-58.50247 37.36783,19.6126 101.6837,88.75414 131.36435,137.127678 19.81821,32.299738 17.90449,61.572695 36.52007,96.919541 37.65569,71.49981 33.47451,134.993161 33.47451,134.993161 z"
       id="path7119"
       inkscape:connector-curvature="0"
       sodipodi:nodetypes="csscssssscssssscc"
       inkscape:export-xdpi="25.401064"
       inkscape:export-ydpi="25.401064" />
    <path
       style="fill:#ffffff;fill-opacity:1;stroke:#000000;stroke-width:0.26528871px;stroke-linecap:butt;stroke-linejoin:miter;stroke-opacity:1"
       d="m -89.079315,-103.35205 c -5.355092,-0.0423 -10.976905,1.14178 -17.004645,3.813202 -24.39731,10.812589 -49.99564,31.008335 -74.69777,55.261742 l 27.3689,6.733142 c 0,0 37.54479,-6.643825 52.91974,-7.216316 16.266718,-0.605697 70.29176,13.096285 70.29176,13.096285 L -3.9253419,-36.46983 C -39.091533,-67.248524 -60.21208,-103.12398 -89.079315,-103.35205 Z"
       id="path7667"
       inkscape:connector-curvature="0"
       sodipodi:nodetypes="ssccsccs" />
    <path
       style="fill:#ffffff;fill-opacity:1;stroke:#000000;stroke-width:0.26528871px;stroke-linecap:butt;stroke-linejoin:miter;stroke-opacity:1"
       d="m 407.64489,-149.59109 c -3.16164,5.3e-4 -6.85266,0.69212 -11.32388,2.18643 -27.58511,9.21919 -62.78364,23.26057 -86.13944,47.05191 -0.48803,0.497148 -0.97163,1.016567 -1.45365,1.545642 l 38.00898,27.762496 c 0,0 38.08021,3.220341 53.02237,4.180257 17.97222,1.154573 44.27522,12.276693 44.27522,12.276693 l 26.59724,1.957062 c -8.64971,-26.69799 -17.98373,-51.38495 -31.28595,-67.13285 -14.23985,-16.85793 -18.00053,-29.83027 -31.70089,-29.82764 z"
       id="path7672"
       inkscape:connector-curvature="0"
       sodipodi:nodetypes="sccccsccss" />
    <path
       style="fill:#ffffff;fill-opacity:1;stroke:#000000;stroke-width:0.26528871px;stroke-linecap:butt;stroke-linejoin:miter;stroke-opacity:1"
       d="m 751.92413,-230.38409 c -17.19051,-0.24061 -48.85349,31.71213 -66.12776,59.65062 -12.40571,20.06435 -25.63688,42.43977 -38.70357,65.89004 l 49.89507,12.528135 c 0,0 47.66331,-12.525045 67.65809,-15.875075 18.38531,-3.08036 58.58594,3.77947 58.58594,3.77947 l 38.99659,-24.37267 c -32.55396,-41.49038 -76.88942,-85.45383 -105.4659,-100.45227 -1.43663,-0.75401 -3.06014,-1.12336 -4.83846,-1.14825 z"
       id="path7677"
       inkscape:connector-curvature="0"
       sodipodi:nodetypes="ssccscccs" />
  </g>
  <g
     inkscape:groupmode="layer"
     id="layer3"
     inkscape:label="ground"
     style="display:inline"
     sodipodi:insensitive="true">
    <rect
       style="opacity:0.93000034;fill:#ffffff;fill-opacity:0.8643216;stroke:none;stroke-width:0.27968171;stroke-opacity:1"
       id="rect8493"
       width="1280"
       height="183.46521"
       x="-321.55759"
       y="139.75598"
       inkscape:export-xdpi="25.4"
       inkscape:export-ydpi="25.4" />
  </g>
  <g
     inkscape:groupmode="layer"
     id="layer4"
     inkscape:label="trees"
     style="display:inline"
     sodipodi:insensitive="true">
    <g
       id="g8808"
       inkscape:export-xdpi="25.4"
       inkscape:export-ydpi="25.4">
      <path
         sodipodi:nodetypes="ccccc"
         inkscape:connector-curvature="0"
         id="path8518"
         d="m 27.48365,142.45188 2.73755,28.14158 34.68019,0.18899 3.20723,-28.86511 z"
         style="fill:#6c5d53;stroke:#000000;stroke-width:0.26458332px;stroke-linecap:butt;stroke-linejoin:miter;stroke-opacity:1" />
      <path
         sodipodi:nodetypes="cccccccccccc"
         inkscape:connector-curvature="0"
         id="path8516"
         d="m 48.77907,-57.27674 -70.024616,74.30093 39.555896,-6.949008 -70.559161,81.249928 51.85029,-6.949 -63.610148,58.79929 c 73.588209,0 237.660029,1e-5 220.764629,1e-5 l -64.67922,-61.472 57.19567,8.01809 -74.30093,-79.111779 36.8832,5.345391 z"
         style="fill:#006c00;fill-opacity:1;stroke:#000000;stroke-width:0.26458332px;stroke-linecap:butt;stroke-linejoin:miter;stroke-opacity:1" />
    </g>
    <g
       transform="matrix(0.4420596,0,0,0.60696036,-91.575209,40.29633)"
       id="g8598"
       inkscape:export-xdpi="25.4"
       inkscape:export-ydpi="25.4">
      <path
         style="fill:#6c5d53;stroke:#000000;stroke-width:0.26458332px;stroke-linecap:butt;stroke-linejoin:miter;stroke-opacity:1"
         d="m 119.28835,194.17951 2.73755,28.14158 34.68019,0.18899 3.20723,-28.86511 z"
         id="path8594"
         inkscape:connector-curvature="0"
         sodipodi:nodetypes="ccccc" />
      <path
         style="fill:#008000;stroke:#000000;stroke-width:0.26458332px;stroke-linecap:butt;stroke-linejoin:miter;stroke-opacity:1"
         d="M 140.58377,-5.5491097 70.559154,68.75182 110.11505,61.802812 39.555889,143.05274 l 51.85029,-6.949 -63.610148,58.79929 c 73.588209,0 237.660029,1e-5 220.764629,1e-5 l -64.67922,-61.472 57.19567,8.01809 -74.30093,-79.111779 36.8832,5.345391 z"
         id="path8596"
         inkscape:connector-curvature="0"
         sodipodi:nodetypes="cccccccccccc" />
    </g>
    <g
       id="g8814"
       inkscape:export-xdpi="25.4"
       inkscape:export-ydpi="25.4">
      <path
         sodipodi:nodetypes="ccccc"
         inkscape:connector-curvature="0"
         id="path8606"
         d="m 464.14775,155.65315 1.72333,25.38138 21.8317,0.17046 2.01899,-26.03395 z"
         style="fill:#6c5d53;stroke:#000000;stroke-width:0.19936498px;stroke-linecap:butt;stroke-linejoin:miter;stroke-opacity:1" />
      <path
         sodipodi:nodetypes="cccccccccccc"
         inkscape:connector-curvature="0"
         id="path8608"
         d="m 477.55354,-24.485582 -44.08154,67.013307 24.90102,-6.267432 -44.41804,73.280727 32.64053,-6.26742 -40.04353,53.03211 c 46.32487,0 149.61052,1e-5 138.97461,1e-5 l -40.71653,-55.44268 36.00553,7.23166 -46.77354,-71.352296 23.21852,4.821101 z"
         style="fill:#006700;fill-opacity:1;stroke:#000000;stroke-width:0.19936498px;stroke-linecap:butt;stroke-linejoin:miter;stroke-opacity:1" />
    </g>
    <g
       id="g8570"
       transform="translate(176.46747,-46.094023)"
       inkscape:export-xdpi="25.4"
       inkscape:export-ydpi="25.4">
      <path
         sodipodi:nodetypes="ccccc"
         inkscape:connector-curvature="0"
         id="path8566"
         d="m 119.28835,194.17951 2.73755,28.14158 34.68019,0.18899 3.20723,-28.86511 z"
         style="fill:#6c5d53;stroke:#000000;stroke-width:0.26458332px;stroke-linecap:butt;stroke-linejoin:miter;stroke-opacity:1" />
      <path
         sodipodi:nodetypes="cccccccccccc"
         inkscape:connector-curvature="0"
         id="path8568"
         d="M 140.58377,-5.5491097 70.559154,68.75182 110.11505,61.802812 39.555889,143.05274 l 51.85029,-6.949 -63.610148,58.79929 c 73.588209,0 237.660029,1e-5 220.764629,1e-5 l -64.67922,-61.472 57.19567,8.01809 -74.30093,-79.111779 36.8832,5.345391 z"
         style="fill:#008000;stroke:#000000;stroke-width:0.26458332px;stroke-linecap:butt;stroke-linejoin:miter;stroke-opacity:1" />
    </g>
    <g
       id="g8540"
       transform="matrix(0.62951488,0,0,0.90191748,106.81733,5.1080529)"
       inkscape:export-xdpi="25.4"
       inkscape:export-ydpi="25.4">
      <path
         sodipodi:nodetypes="ccccc"
         inkscape:connector-curvature="0"
         id="path8536"
         d="m 119.28835,194.17951 2.73755,28.14158 34.68019,0.18899 3.20723,-28.86511 z"
         style="fill:#6c5d53;stroke:#000000;stroke-width:0.26458332px;stroke-linecap:butt;stroke-linejoin:miter;stroke-opacity:1" />
      <path
         sodipodi:nodetypes="cccccccccccc"
         inkscape:connector-curvature="0"
         id="path8538"
         d="M 140.58377,-5.5491097 70.559154,68.75182 110.11505,61.802812 39.555889,143.05274 l 51.85029,-6.949 -63.610148,58.79929 c 73.588209,0 237.660029,1e-5 220.764629,1e-5 l -64.67922,-61.472 57.19567,8.01809 -74.30093,-79.111779 36.8832,5.345391 z"
         style="fill:#008000;stroke:#000000;stroke-width:0.26458332px;stroke-linecap:butt;stroke-linejoin:miter;stroke-opacity:1" />
    </g>
    <g
       transform="translate(-340.8999,-20.724367)"
       id="g8546"
       inkscape:export-xdpi="25.4"
       inkscape:export-ydpi="25.4">
      <path
         style="fill:#6c5d53;stroke:#000000;stroke-width:0.26458332px;stroke-linecap:butt;stroke-linejoin:miter;stroke-opacity:1"
         d="m 119.28835,194.17951 2.73755,28.14158 34.68019,0.18899 3.20723,-28.86511 z"
         id="path8542"
         inkscape:connector-curvature="0"
         sodipodi:nodetypes="ccccc" />
      <path
         style="fill:#008000;stroke:#000000;stroke-width:0.26458332px;stroke-linecap:butt;stroke-linejoin:miter;stroke-opacity:1"
         d="M 140.58377,-5.5491097 70.559154,68.75182 110.11505,61.802812 39.555889,143.05274 l 51.85029,-6.949 -63.610148,58.79929 c 73.588209,0 237.660029,1e-5 220.764629,1e-5 l -64.67922,-61.472 57.19567,8.01809 -74.30093,-79.111779 36.8832,5.345391 z"
         id="path8544"
         inkscape:connector-curvature="0"
         sodipodi:nodetypes="cccccccccccc" />
    </g>
    <g
       id="g8552"
       transform="translate(451.75508,-41.817711)"
       inkscape:export-xdpi="25.4"
       inkscape:export-ydpi="25.4">
      <path
         sodipodi:nodetypes="ccccc"
         inkscape:connector-curvature="0"
         id="path8548"
         d="m 119.28835,194.17951 2.73755,28.14158 34.68019,0.18899 3.20723,-28.86511 z"
         style="fill:#6c5d53;stroke:#000000;stroke-width:0.26458332px;stroke-linecap:butt;stroke-linejoin:miter;stroke-opacity:1" />
      <path
         sodipodi:nodetypes="cccccccccccc"
         inkscape:connector-curvature="0"
         id="path8550"
         d="M 140.58377,-5.5491097 70.559154,68.75182 110.11505,61.802812 39.555889,143.05274 l 51.85029,-6.949 -63.610148,58.79929 c 73.588209,0 237.660029,1e-5 220.764629,1e-5 l -64.67922,-61.472 57.19567,8.01809 -74.30093,-79.111779 36.8832,5.345391 z"
         style="fill:#008000;stroke:#000000;stroke-width:0.26458332px;stroke-linecap:butt;stroke-linejoin:miter;stroke-opacity:1" />
    </g>
    <g
       id="g8564"
       transform="matrix(0.4420596,0,0,0.60696036,-145.02912,86.266689)"
       inkscape:export-xdpi="25.4"
       inkscape:export-ydpi="25.4">
      <path
         sodipodi:nodetypes="ccccc"
         inkscape:connector-curvature="0"
         id="path8560"
         d="m 119.28835,194.17951 2.73755,28.14158 34.68019,0.18899 3.20723,-28.86511 z"
         style="fill:#6c5d53;stroke:#000000;stroke-width:0.26458332px;stroke-linecap:butt;stroke-linejoin:miter;stroke-opacity:1" />
      <path
         sodipodi:nodetypes="cccccccccccc"
         inkscape:connector-curvature="0"
         id="path8562"
         d="M 140.58377,-5.5491097 70.559154,68.75182 110.11505,61.802812 39.555889,143.05274 l 51.85029,-6.949 -63.610148,58.79929 c 73.588209,0 237.660029,1e-5 220.764629,1e-5 l -64.67922,-61.472 57.19567,8.01809 -74.30093,-79.111779 36.8832,5.345391 z"
         style="fill:#008000;stroke:#000000;stroke-width:0.26458332px;stroke-linecap:butt;stroke-linejoin:miter;stroke-opacity:1" />
    </g>
    <g
       id="g8576"
       transform="translate(704.46225,-36.057779)"
       inkscape:export-xdpi="25.4"
       inkscape:export-ydpi="25.4">
      <path
         sodipodi:nodetypes="ccccc"
         inkscape:connector-curvature="0"
         id="path8572"
         d="m 119.28835,194.17951 2.73755,28.14158 34.68019,0.18899 3.20723,-28.86511 z"
         style="fill:#6c5d53;stroke:#000000;stroke-width:0.26458332px;stroke-linecap:butt;stroke-linejoin:miter;stroke-opacity:1" />
      <path
         sodipodi:nodetypes="cccccccccccc"
         inkscape:connector-curvature="0"
         id="path8574"
         d="M 140.58377,-5.5491097 70.559154,68.75182 110.11505,61.802812 39.555889,143.05274 l 51.85029,-6.949 -63.610148,58.79929 c 73.588209,0 237.660029,1e-5 220.764629,1e-5 l -64.67922,-61.472 57.19567,8.01809 -74.30093,-79.111779 36.8832,5.345391 z"
         style="fill:#008000;stroke:#000000;stroke-width:0.26458332px;stroke-linecap:butt;stroke-linejoin:miter;stroke-opacity:1" />
    </g>
    <g
       transform="matrix(0.62951488,0,0,0.90191748,617.83668,13.660678)"
       id="g8592"
       inkscape:export-xdpi="25.4"
       inkscape:export-ydpi="25.4">
      <path
         style="fill:#6c5d53;stroke:#000000;stroke-width:0.26458332px;stroke-linecap:butt;stroke-linejoin:miter;stroke-opacity:1"
         d="m 119.28835,194.17951 2.73755,28.14158 34.68019,0.18899 3.20723,-28.86511 z"
         id="path8588"
         inkscape:connector-curvature="0"
         sodipodi:nodetypes="ccccc" />
      <path
         style="fill:#008000;stroke:#000000;stroke-width:0.26458332px;stroke-linecap:butt;stroke-linejoin:miter;stroke-opacity:1"
         d="M 140.58377,-5.5491097 70.559154,68.75182 110.11505,61.802812 39.555889,143.05274 l 51.85029,-6.949 -63.610148,58.79929 c 73.588209,0 237.660029,1e-5 220.764629,1e-5 l -64.67922,-61.472 57.19567,8.01809 -74.30093,-79.111779 36.8832,5.345391 z"
         id="path8590"
         inkscape:connector-curvature="0"
         sodipodi:nodetypes="cccccccccccc" />
    </g>
    <g
       id="g8604"
       transform="matrix(0.4420596,0,0,0.60696036,309.32909,84.128532)"
       inkscape:export-xdpi="25.4"
       inkscape:export-ydpi="25.4">
      <path
         sodipodi:nodetypes="ccccc"
         inkscape:connector-curvature="0"
         id="path8600"
         d="m 119.28835,194.17951 2.73755,28.14158 34.68019,0.18899 3.20723,-28.86511 z"
         style="fill:#6c5d53;stroke:#000000;stroke-width:0.26458332px;stroke-linecap:butt;stroke-linejoin:miter;stroke-opacity:1" />
      <path
         sodipodi:nodetypes="cccccccccccc"
         inkscape:connector-curvature="0"
         id="path8602"
         d="M 140.58377,-5.5491097 70.559154,68.75182 110.11505,61.802812 39.555889,143.05274 l 51.85029,-6.949 -63.610148,58.79929 c 73.588209,0 237.660029,1e-5 220.764629,1e-5 l -64.67922,-61.472 57.19567,8.01809 -74.30093,-79.111779 36.8832,5.345391 z"
         style="fill:#008000;stroke:#000000;stroke-width:0.26458332px;stroke-linecap:butt;stroke-linejoin:miter;stroke-opacity:1" />
    </g>
  </g>
</svg>
