<?xml version="1.0" encoding="UTF-8" standalone="no"?>
<!-- Created with Inkscape (http://www.inkscape.org/) -->

<svg
   xmlns:dc="http://purl.org/dc/elements/1.1/"
   xmlns:cc="http://creativecommons.org/ns#"
   xmlns:rdf="http://www.w3.org/1999/02/22-rdf-syntax-ns#"
   xmlns:svg="http://www.w3.org/2000/svg"
   xmlns="http://www.w3.org/2000/svg"
   xmlns:sodipodi="http://sodipodi.sourceforge.net/DTD/sodipodi-0.dtd"
   xmlns:inkscape="http://www.inkscape.org/namespaces/inkscape"
   width="210mm"
   height="297mm"
   viewBox="0 0 744.09448819 1052.3622047"
   id="svg4975"
   version="1.1"
   inkscape:version="0.91 r13725"
   sodipodi:docname="favicon.svg">
  <defs
     id="defs4977" />
  <sodipodi:namedview
     id="base"
     pagecolor="#ffffff"
     bordercolor="#666666"
     borderopacity="1.0"
     inkscape:pageopacity="0.0"
     inkscape:pageshadow="2"
     inkscape:zoom="0.35"
     inkscape:cx="1153.0484"
     inkscape:cy="520"
     inkscape:document-units="px"
     inkscape:current-layer="layer1"
     showgrid="false"
     showborder="false"
     inkscape:snap-bbox="true"
     inkscape:snap-bbox-midpoints="true"
     inkscape:window-width="1920"
     inkscape:window-height="1017"
     inkscape:window-x="1912"
     inkscape:window-y="-8"
     inkscape:window-maximized="1" />
  <metadata
     id="metadata4980">
    <rdf:RDF>
      <cc:Work
         rdf:about="">
        <dc:format>image/svg+xml</dc:format>
        <dc:type
           rdf:resource="http://purl.org/dc/dcmitype/StillImage" />
        <dc:title></dc:title>
      </cc:Work>
    </rdf:RDF>
  </metadata>
  <g
     inkscape:label="Layer 1"
     inkscape:groupmode="layer"
     id="layer1">
    <rect
       style="fill:#333333;fill-opacity:1;fill-rule:evenodd;stroke:none;stroke-width:3.54330707;stroke-miterlimit:4;stroke-dasharray:none;stroke-opacity:1"
       id="rect6244"
       width="540"
       height="540"
       x="1308.6226"
       y="30.053505"
       ry="67.894661"
       inkscape:export-xdpi="8"
       inkscape:export-ydpi="8" />
    <g
       id="g6213"
       transform="translate(1277.2578,221.53267)">
      <path
         class="fil24"
         d="m 339.39105,-11.962721 c -91.14484,0 -165.60992,74.464925 -165.60992,166.205731 0,91.7408 74.46508,165.61001 165.60992,165.61001 91.74118,0 166.20591,-73.86921 166.20591,-165.61001 0,-91.740806 -74.46473,-166.205731 -166.20591,-166.205731 z"
         id="path5565"
         inkscape:connector-curvature="0"
         style="clip-rule:evenodd;fill:#ececec;fill-rule:evenodd;stroke-width:0.16812527;image-rendering:optimizeQuality;shape-rendering:geometricPrecision;text-rendering:geometricPrecision" />
      <path
         class="fil31"
         d="m 204.75849,250.74956 c 4.7661,6.55292 9.53185,12.51011 14.89323,17.87158 5.36138,3.57432 11.91437,5.36148 19.06299,5.36148 9.5315,0 18.46736,-3.57432 25.02,-9.53151 8.34024,23.23306 30.97772,39.31748 57.18933,39.31748 13.10563,0 25.02,-4.17003 35.14713,-11.31867 7.7446,11.31867 20.85059,19.06303 35.14748,19.06303 l 1.78724,0 c 10.12713,-3.57432 19.65898,-8.34008 29.19047,-13.70155 6.553,-7.14864 10.72276,-16.08443 11.31839,-26.21166 1.19161,0 2.97886,0 4.17012,0 15.48886,0 27.99886,-12.51011 27.99886,-27.99881 0,-15.4887 -12.51,-28.59453 -27.99886,-28.59453 -11.31874,0 -21.44587,7.14863 -25.61599,16.68014 -6.55263,-3.57431 -13.10563,-5.36148 -20.85023,-5.36148 -3.57414,0 -7.74425,0.59572 -11.31839,1.78717 -3.57449,-17.27588 -14.89323,-31.57315 -30.38173,-39.31749 0,-1.19145 0.59563,-2.38288 0.59563,-2.9786 0,-14.29727 -11.31874,-25.61593 -25.61598,-25.61593 -13.70162,0 -24.42437,11.31866 -25.02,25.02021 -14.29725,4.76576 -26.21162,15.48871 -32.76461,28.59454 -6.55299,-7.74435 -16.68012,-12.51012 -27.40323,-12.51012 1.78724,-3.57431 2.9785,-7.74435 2.9785,-12.5101 0,-15.4887 -12.51,-28.59453 -27.9985,-28.59453 -16.08449,0 -28.59449,13.10583 -28.59449,28.59453 0,14.29726 10.12713,25.61594 23.23276,27.99881 -4.17012,5.9572 -6.55264,13.10583 -6.55264,20.85019 0,4.76575 1.19126,8.93579 2.38252,13.10582 z M 215.4816,138.15858 c -5.95701,0 -10.72311,4.76577 -10.72311,10.72295 0,5.9572 4.7661,10.72296 10.72311,10.72296 5.95736,0 10.72311,-4.76576 10.72311,-10.72296 0,-5.95718 -4.76575,-10.72295 -10.72311,-10.72295 z m 95.91095,-10.72294 c -8.93587,0 -16.08449,7.14863 -16.08449,16.08442 0,8.93579 7.14862,16.08443 16.08449,16.08443 8.93586,0 16.08413,-7.14864 16.08413,-16.08443 0,-8.93579 -7.14827,-16.08442 -16.08413,-16.08442 z m 129.86681,61.3591 c -6.553,0 -11.91437,5.36147 -11.91437,12.5101 0,6.55292 5.36137,11.9144 11.91437,11.9144 6.55299,0 12.51,-5.36148 12.51,-11.9144 0,-7.14863 -5.95701,-12.5101 -12.51,-12.5101 z m -55.99772,-14.29727 c -5.95736,0 -10.72311,4.76575 -10.72311,10.72295 0,5.9572 4.76575,11.31866 10.72311,11.31866 5.95701,0 10.72311,-5.36146 10.72311,-11.31866 0,-5.9572 -4.7661,-10.72295 -10.72311,-10.72295 z M 273.26656,153.64729 c -5.95736,0 -11.31874,5.36148 -11.31874,11.31866 0,5.9572 5.36138,10.72296 11.31874,10.72296 5.95701,0 10.72276,-4.76576 10.72276,-10.72296 0,-5.95718 -4.76575,-11.31866 -10.72276,-11.31866 z"
         id="path5567"
         inkscape:connector-curvature="0"
         style="clip-rule:evenodd;fill:#d40000;fill-rule:evenodd;stroke-width:0.16812527;image-rendering:optimizeQuality;shape-rendering:geometricPrecision;text-rendering:geometricPrecision" />
      <path
         style="clip-rule:evenodd;fill:#000000;fill-rule:evenodd;stroke-width:0.16812529;image-rendering:optimizeQuality;shape-rendering:geometricPrecision;text-rendering:geometricPrecision"
         inkscape:connector-curvature="0"
         id="path5569"
         d="m 360.24129,85.73533 c -12.51,0 -22.63748,14.89299 -22.63748,32.76457 0,18.46731 10.12748,33.36029 22.63748,33.36029 12.51,0 22.63748,-14.89298 22.63748,-33.36029 0,-17.87158 -10.12748,-32.76457 -22.63748,-32.76457 z"
         class="fil12" />
      <path
         style="clip-rule:evenodd;fill:#ff0000;fill-rule:evenodd;stroke-width:0.25080773;image-rendering:optimizeQuality;shape-rendering:geometricPrecision;text-rendering:geometricPrecision"
         inkscape:connector-curvature="0"
         id="path5571"
         d="m 352.44814,114.77933 c -4.44367,0 -8.88697,6.22082 -8.88697,14.21902 0,7.10951 4.4433,13.33033 8.88697,13.33033 5.33196,0 8.88661,-6.22082 8.88661,-13.33033 0,-7.9982 -3.55465,-14.21902 -8.88661,-14.21902 z"
         class="fil24" />
      <path
         style="clip-rule:evenodd;fill:#000000;fill-rule:evenodd;stroke-width:0.16812529;image-rendering:optimizeQuality;shape-rendering:geometricPrecision;text-rendering:geometricPrecision"
         inkscape:connector-curvature="0"
         id="path5573"
         d="m 236.33148,70.246624 c -12.51,0 -22.63712,14.892987 -22.63712,33.360286 0,18.46731 10.12712,33.3603 22.63712,33.3603 12.51036,0 22.63748,-14.89299 22.63748,-33.3603 0,-18.467299 -10.12712,-33.360286 -22.63748,-33.360286 z"
         class="fil12" />
      <path
         style="clip-rule:evenodd;fill:#ff2a2a;fill-rule:evenodd;stroke-width:0.20946644;image-rendering:optimizeQuality;shape-rendering:geometricPrecision;text-rendering:geometricPrecision"
         inkscape:connector-curvature="0"
         id="path5575"
         d="m 227.81585,104.57386 c -4.45323,0 -8.16449,5.19543 -8.16449,11.13306 0,5.93763 3.71126,11.13305 8.16449,11.13305 3.71091,0 7.42217,-5.19542 7.42217,-11.13305 0,-5.93763 -3.71126,-11.13306 -7.42217,-11.13306 z"
         class="fil24" />
      <g
         style="clip-rule:evenodd;fill:#ff6600;fill-rule:evenodd;image-rendering:optimizeQuality;shape-rendering:geometricPrecision;text-rendering:geometricPrecision"
         id="g5577"
         transform="matrix(-0.58977975,0.08391416,0.08391416,0.58977973,3998.1547,-1857.9643)">
        <path
           class="fil32"
           d="m 6768,2446 c 19,0 35,6 35,13 0,7 -16,12 -35,12 -20,0 -36,-5 -36,-12 0,-7 16,-13 36,-13 z"
           id="path5579"
           inkscape:connector-curvature="0"
           style="fill:#ff6600" />
        <path
           class="fil33"
           d="m 6626,2535 c -56,15 -76,-67 -26,-83 l 380,-52 z"
           id="path5581"
           inkscape:connector-curvature="0"
           style="fill:#ff6600" />
        <path
           class="fil34"
           d="m 6741,2467 -20,6 -62,17 -34,10 -32,9 -16,5 c 7,14 21,25 41,23 2,0 5,-1 8,-2 l 75,-28 52,-20 21,-8 34,-13 172,-66 -12,2 -161,46 -11,3 -17,5 -23,7 z"
           id="path5583"
           inkscape:connector-curvature="0"
           style="fill:#ff6600" />
        <path
           class="fil35"
           d="m 6600,2471 183,-38 21,-4 64,-13 -64,8 -21,3 -58,8 -38,5 -83,12 -4,0 c -13,5 -21,13 -26,24 z"
           id="path5585"
           inkscape:connector-curvature="0"
           style="fill:#ff6600" />
      </g>
      <path
         class="fil12"
         d="m 399.08656,69.930173 c -2.38571,0 -4.29449,-1.90862 -4.29449,-4.055804 0,-2.385776 1.90878,-4.294378 4.29449,-4.294378 2.14725,0 4.05603,1.908602 4.05603,4.294378 0,2.147184 -1.90878,4.055804 -4.05603,4.055804 z"
         id="path5591"
         inkscape:connector-curvature="0"
         style="clip-rule:evenodd;fill:#000000;fill-rule:evenodd;stroke-width:0.06733162;image-rendering:optimizeQuality;shape-rendering:geometricPrecision;text-rendering:geometricPrecision" />
      <path
         class="fil12"
         d="m 385.51995,69.117455 c -3.33992,0 -5.96445,-2.624343 -5.96445,-5.96442 0,-3.101499 2.62453,-5.725843 5.96445,-5.725843 3.10145,0 5.72598,2.624344 5.72598,5.725843 0,3.340077 -2.62453,5.96442 -5.72598,5.96442 z"
         id="path5593"
         inkscape:connector-curvature="0"
         style="clip-rule:evenodd;fill:#000000;fill-rule:evenodd;stroke-width:0.06733162;image-rendering:optimizeQuality;shape-rendering:geometricPrecision;text-rendering:geometricPrecision" />
      <path
         class="fil12"
         d="m 368.25164,78.161594 c -4.29449,0 -7.87323,-3.340063 -7.87323,-7.873023 0,-4.294378 3.57874,-7.873022 7.87323,-7.873022 4.5326,0 8.11134,3.578644 8.11134,7.873022 0,4.53296 -3.57874,7.873023 -8.11134,7.873023 z"
         id="path5595"
         inkscape:connector-curvature="0"
         style="clip-rule:evenodd;fill:#000000;fill-rule:evenodd;stroke-width:0.06733162;image-rendering:optimizeQuality;shape-rendering:geometricPrecision;text-rendering:geometricPrecision" />
      <path
         class="fil12"
         d="m 348.60507,86.603392 c -4.53296,0 -8.1117,-3.340077 -8.1117,-7.873023 0,-4.294378 3.57874,-7.873023 8.1117,-7.873023 4.29448,0 7.87322,3.578645 7.87322,7.873023 0,4.532946 -3.57874,7.873023 -7.87322,7.873023 z"
         id="path5597"
         inkscape:connector-curvature="0"
         style="clip-rule:evenodd;fill:#000000;fill-rule:evenodd;stroke-width:0.06733162;image-rendering:optimizeQuality;shape-rendering:geometricPrecision;text-rendering:geometricPrecision" />
      <path
         class="fil12"
         d="m 329.27774,94.69426 c -3.57874,0 -6.44173,-2.86292 -6.44173,-6.202998 0,-3.578644 2.86299,-6.441562 6.44173,-6.441562 3.33992,0 6.20292,2.862918 6.20292,6.441562 0,3.340078 -2.863,6.202998 -6.20292,6.202998 z"
         id="path5599"
         inkscape:connector-curvature="0"
         style="clip-rule:evenodd;fill:#000000;fill-rule:evenodd;stroke-width:0.06733162;image-rendering:optimizeQuality;shape-rendering:geometricPrecision;text-rendering:geometricPrecision" />
      <path
         class="fil12"
         d="m 316.20932,99.139271 c -2.38571,0 -4.29414,-1.908619 -4.29414,-4.29438 0,-2.147198 1.90843,-4.055801 4.29414,-4.055801 2.14724,0 4.05602,1.908603 4.05602,4.055801 0,2.385761 -1.90878,4.29438 -4.05602,4.29438 z"
         id="path5601"
         inkscape:connector-curvature="0"
         style="clip-rule:evenodd;fill:#000000;fill-rule:evenodd;stroke-width:0.06733162;image-rendering:optimizeQuality;shape-rendering:geometricPrecision;text-rendering:geometricPrecision" />
      <path
         class="fil12"
         d="m 285.82121,88.85521 c -2.38571,0 -4.29449,-1.90862 -4.29449,-4.0558 0,-2.385762 1.90878,-4.294382 4.29449,-4.294382 2.14689,0 4.05567,1.90862 4.05567,4.294382 0,2.14718 -1.90878,4.0558 -4.05567,4.0558 z"
         id="path5603"
         inkscape:connector-curvature="0"
         style="clip-rule:evenodd;fill:#000000;fill-rule:evenodd;stroke-width:0.06733162;image-rendering:optimizeQuality;shape-rendering:geometricPrecision;text-rendering:geometricPrecision" />
      <path
         class="fil12"
         d="m 272.25424,78.758617 c -3.34028,0 -5.96445,-2.62434 -5.96445,-5.964421 0,-3.101481 2.62417,-5.725839 5.96445,-5.725839 3.1011,0 5.72563,2.624358 5.72563,5.725839 0,3.340081 -2.62453,5.964421 -5.72563,5.964421 z"
         id="path5605"
         inkscape:connector-curvature="0"
         style="clip-rule:evenodd;fill:#000000;fill-rule:evenodd;stroke-width:0.06733162;image-rendering:optimizeQuality;shape-rendering:geometricPrecision;text-rendering:geometricPrecision" />
      <path
         class="fil12"
         d="m 258.58558,68.250292 c -4.29414,0 -7.87288,-3.340063 -7.87288,-7.873023 0,-4.294364 3.57874,-7.873023 7.87288,-7.873023 4.53295,0 8.11169,3.578659 8.11169,7.873023 0,4.53296 -3.57874,7.873023 -8.11169,7.873023 z"
         id="path5607"
         inkscape:connector-curvature="0"
         style="clip-rule:evenodd;fill:#000000;fill-rule:evenodd;stroke-width:0.06733162;image-rendering:optimizeQuality;shape-rendering:geometricPrecision;text-rendering:geometricPrecision" />
      <path
         class="fil12"
         d="m 245.64648,56.764559 c -4.53295,0 -8.11169,-3.340078 -8.11169,-7.87302 0,-4.294381 3.57874,-7.873022 8.11169,-7.873022 4.29414,0 7.87288,3.578641 7.87288,7.873022 0,4.532942 -3.57874,7.87302 -7.87288,7.87302 z"
         id="path5609"
         inkscape:connector-curvature="0"
         style="clip-rule:evenodd;fill:#000000;fill-rule:evenodd;stroke-width:0.06733162;image-rendering:optimizeQuality;shape-rendering:geometricPrecision;text-rendering:geometricPrecision" />
      <path
         class="fil12"
         d="m 230.43648,49.757375 c -3.57838,0 -6.44138,-2.862918 -6.44138,-6.202998 0,-3.578641 2.863,-6.441562 6.44138,-6.441562 3.34028,0 6.20327,2.862921 6.20327,6.441562 0,3.34008 -2.86299,6.202998 -6.20327,6.202998 z"
         id="path5611"
         inkscape:connector-curvature="0"
         style="clip-rule:evenodd;fill:#000000;fill-rule:evenodd;stroke-width:0.06733162;image-rendering:optimizeQuality;shape-rendering:geometricPrecision;text-rendering:geometricPrecision" />
      <path
         class="fil12"
         d="m 216.68207,53.516097 c -2.38571,0 -4.29413,-1.908616 -4.29413,-4.294378 0,-2.147184 1.90842,-4.0558 4.29413,-4.0558 2.14725,0 4.05603,1.908616 4.05603,4.0558 0,2.385762 -1.90878,4.294378 -4.05603,4.294378 z"
         id="path5613"
         inkscape:connector-curvature="0"
         style="clip-rule:evenodd;fill:#000000;fill-rule:evenodd;stroke-width:0.06733162;image-rendering:optimizeQuality;shape-rendering:geometricPrecision;text-rendering:geometricPrecision" />
      <path
         style="fill:#000000;stroke:#000000;stroke-width:0.93749994px;stroke-linecap:butt;stroke-linejoin:miter;stroke-opacity:1"
         d="m 154.7727,34.459569 364.60205,-2.071602 0,-33.14562788 -78.72094,0 0,-161.58493912 -216.48225,0 -1.03571,161.58493912 -68.36244,0 z"
         id="path5615"
         inkscape:connector-curvature="0"
         sodipodi:nodetypes="ccccccccc" />
      <g
         id="g5617"
         transform="matrix(3.5433071,0,0,3.543307,-12788.721,70.524887)">
        <path
           style="fill:#e6e6e6;stroke:none;stroke-width:0.23778957px;stroke-linecap:butt;stroke-linejoin:miter;stroke-opacity:1"
           d="m 3672.861,44.64633 c 1.8866,-2.10505 4.6777,-2.243344 8.0979,-2.314093 3.6458,-0.07543 7.0971,-0.01541 10.4734,-0.215554 5.2393,-0.310579 10.6332,-0.78381 15.7574,0.168639 5.4191,1.007267 10.1948,3.654279 15.1438,5.733884 2.2311,0.937549 5.7445,1.080899 6.5483,3.035582 0.667,1.621865 -0.9789,3.517256 -2.4556,4.722027 -2.5209,2.056526 -6.3906,2.635204 -9.8229,3.372868 -4.585,0.985379 -9.3978,1.666796 -14.1203,1.349155 -4.4547,-0.299625 -8.7271,-1.700332 -12.8925,-3.035592 -2.8431,-0.911382 -5.5472,-2.111026 -8.1857,-3.372867 -2.9781,-1.424257 -6.7589,-2.32143 -8.5949,-4.722022 -1.0286,-1.345147 -1.0952,-3.443055 0.052,-4.722027 z"
           id="path5619"
           inkscape:connector-curvature="0"
           sodipodi:nodetypes="sssssssssssss" />
        <path
           style="fill:#000000;stroke:#000000;stroke-width:0.25426543px;stroke-linecap:butt;stroke-linejoin:miter;stroke-opacity:1"
           d="m 3679.8031,43.785171 3.4836,4.065959 5.8889,-4.362546 9.2032,6.278732 8.1408,-6.213437 8.361,7.570095 11.2831,-1.03169 -9.9802,9.604325 -7.6967,-4.276402 -5.7665,4.844736 -3.903,-6.554742 -4.2259,2.019809 -3.217,-3.897056 -2.64,2.038412 -2.0258,1.307636 -3.7517,-3.612277 -6.8457,-0.678327 z"
           id="path5621"
           inkscape:connector-curvature="0"
           sodipodi:nodetypes="cccccccccccccccccc" />
      </g>
      <path
         style="clip-rule:evenodd;display:inline;fill:#aa0000;fill-rule:evenodd;stroke-width:0.16812454;image-rendering:optimizeQuality;shape-rendering:geometricPrecision;text-rendering:geometricPrecision"
         inkscape:connector-curvature="0"
         id="path5625"
         d="m 349.46255,122.83321 c -2.97886,0 -5.95737,4.17002 -5.95737,9.53147 0,4.76573 2.97851,8.93575 5.95737,8.93575 3.57413,0 5.957,-4.17002 5.957,-8.93575 0,-5.36145 -2.38287,-9.53147 -5.957,-9.53147 z"
         class="fil24" />
      <path
         style="clip-rule:evenodd;display:inline;fill:#aa0000;fill-rule:evenodd;stroke-width:0.11644825;image-rendering:optimizeQuality;shape-rendering:geometricPrecision;text-rendering:geometricPrecision"
         inkscape:connector-curvature="0"
         id="path5627"
         d="m 224.58436,110.78481 c -2.06327,0 -4.12618,2.88829 -4.12618,6.60179 0,3.3009 2.06291,6.18918 4.12618,6.18918 2.4757,0 4.12618,-2.88828 4.12618,-6.18918 0,-3.7135 -1.65048,-6.60179 -4.12618,-6.60179 z"
         class="fil24" />
    </g>
  </g>
</svg>
