<?xml version="1.0" encoding="UTF-8" standalone="no"?>
<!-- Created with Inkscape (http://www.inkscape.org/) -->

<svg
   xmlns:dc="http://purl.org/dc/elements/1.1/"
   xmlns:cc="http://creativecommons.org/ns#"
   xmlns:rdf="http://www.w3.org/1999/02/22-rdf-syntax-ns#"
   xmlns:svg="http://www.w3.org/2000/svg"
   xmlns="http://www.w3.org/2000/svg"
   xmlns:sodipodi="http://sodipodi.sourceforge.net/DTD/sodipodi-0.dtd"
   xmlns:inkscape="http://www.inkscape.org/namespaces/inkscape"
   width="297mm"
   height="210mm"
   viewBox="0 0 297 210"
   version="1.1"
   id="svg3728"
   inkscape:version="0.92.3 (2405546, 2018-03-11)"
   sodipodi:docname="boot.svg">
  <defs
     id="defs3722" />
  <sodipodi:namedview
     id="base"
     pagecolor="#ffffff"
     bordercolor="#666666"
     borderopacity="1.0"
     inkscape:pageopacity="0.0"
     inkscape:pageshadow="2"
     inkscape:zoom="1.42"
     inkscape:cx="379.91538"
     inkscape:cy="350.85192"
     inkscape:document-units="mm"
     inkscape:current-layer="layer2"
     showgrid="false"
     inkscape:pagecheckerboard="true"
     inkscape:showpageshadow="false"
     showborder="true"
     inkscape:snap-grids="true"
     inkscape:snap-to-guides="true"
     inkscape:object-nodes="true"
     inkscape:window-width="1920"
     inkscape:window-height="1017"
     inkscape:window-x="-8"
     inkscape:window-y="-8"
     inkscape:window-maximized="1"
     inkscape:snap-others="true"
     inkscape:snap-bbox="true"
     inkscape:snap-smooth-nodes="true"
     inkscape:object-paths="false"
     inkscape:snap-global="false" />
  <metadata
     id="metadata3725">
    <rdf:RDF>
      <cc:Work
         rdf:about="">
        <dc:format>image/svg+xml</dc:format>
        <dc:type
           rdf:resource="http://purl.org/dc/dcmitype/StillImage" />
        <dc:title></dc:title>
      </cc:Work>
    </rdf:RDF>
  </metadata>
  <g
     inkscape:label="Layer 1"
     inkscape:groupmode="layer"
     id="layer1"
     style="display:inline;opacity:1"
     transform="translate(0,-87)">
    <path
       style="display:inline;fill:#000000;stroke:#000000;stroke-width:0.26458332px;stroke-linecap:butt;stroke-linejoin:miter;stroke-opacity:0"
       d="m 110.7158,187.99282 -4.32796,4.11806 c 0,0 0.76243,4.21562 1.71454,6.10152 1.51255,2.99602 3.80939,5.57346 6.18202,7.94718 2.51463,2.51579 5.33642,4.78242 8.41982,6.5559 2.42483,1.39469 5.13345,2.2427 7.78595,3.13107 2.24452,0.75173 4.53066,1.40618 6.85517,1.85302 3.02018,0.58058 10.68875,0.27386 10.68875,0.27386 l 4.40181,-3.45031 z"
       id="path4670"
       inkscape:connector-curvature="0"
       sodipodi:nodetypes="ccsssssccc" />
  </g>
  <g
     inkscape:groupmode="layer"
     id="layer2"
     inkscape:label="Layer 2"
     style="display:inline">
    <path
       style="fill:#784421;fill-opacity:1;stroke:#000000;stroke-width:0.26458332px;stroke-linecap:butt;stroke-linejoin:miter;stroke-opacity:0"
       d="m 129.46336,99.855658 c -2.89676,-0.973561 -5.80118,-1.644783 -8.8562,-1.568353 -3.41717,0.08549 -7.29797,0.478741 -9.89138,2.705535 -2.14958,1.84574 -1.9796,2.46367 -1.65206,5.27794 0.45286,3.89103 2.16529,6.95939 4.97124,9.69285 3.25861,3.17442 3.74669,4.03541 7.79803,6.10472 3.89897,1.99149 7.83835,3.78566 11.99313,5.01694 3.63686,1.07781 7.49363,2.16223 11.19574,2.03754 3.65444,-0.12308 7.12856,-1.36016 7.12856,-1.36016 0,0 3.85818,-2.55881 3.93582,-7.19426 0.061,-3.64491 -1.92316,-6.53554 -4.49217,-9.12189 -2.35299,-2.36888 -6.61377,-4.84527 -9.63555,-6.26549 -4.77304,-1.90496 -11.16301,-4.87249 -12.49516,-5.325372 z"
       id="path4664"
       inkscape:connector-curvature="0"
       sodipodi:nodetypes="csssssascsscc" />
    <path
       style="fill:#502d16;fill-opacity:1;stroke:#000000;stroke-width:0.26458332px;stroke-linecap:butt;stroke-linejoin:miter;stroke-opacity:0"
       d="m 135.12529,109.21216 c -0.31886,-2.51408 0.83536,-6.55959 0.83536,-6.55959 0,0 4.82332,-3.113079 7.2857,-4.632951 7.81507,-4.823759 20.07464,-17.817554 20.07464,-17.817554 0,0 -0.71696,6.310823 0.38894,9.159679 1.43846,3.705552 4.45429,6.791798 7.66517,9.134988 3.23158,2.358308 11.10881,4.542808 11.10881,4.542808 0,0 -10.50991,6.57153 -15.37651,10.39018 -4.25111,3.3357 -12.01042,10.88757 -12.01042,10.88757 0,0 -5.34338,0.61212 -7.77829,-0.28374 -3.45235,-1.2702 -4.49517,-2.87038 -7.05645,-5.51083 -2.16608,-2.23305 -4.74552,-6.22426 -5.13695,-9.31056 z"
       id="path4668"
       inkscape:connector-curvature="0"
       sodipodi:nodetypes="scscsscscsss" />
    <path
       style="fill:#000000;stroke:#000000;stroke-width:0.26458332px;stroke-linecap:butt;stroke-linejoin:miter;stroke-opacity:0"
       d="m 182.48391,103.03954 c 0,0 -12.39744,-1.94417 -16.9259,-9.448932 -4.88619,-8.097634 -2.23702,-13.388543 -2.23702,-13.388543 0,0 8.09638,1.313836 13.36145,7.517256 5.45128,6.422835 5.80147,15.320219 5.80147,15.320219 z"
       id="path4673"
       inkscape:connector-curvature="0"
       sodipodi:nodetypes="cscsc" />
    <path
       style="fill:none;stroke:#000000;stroke-width:0.26458332px;stroke-linecap:butt;stroke-linejoin:miter;stroke-opacity:1"
       d="m 139.58119,100.6086 11.23352,6.14078 1.88,-15.441706 11.09572,7.715791 -4.98112,-12.603324 -2.6396,16.565549 -10.16055,-6.311414 -3.71752,15.280944 z"
       id="path4675"
       inkscape:connector-curvature="0" />
    <path
       sodipodi:nodetypes="sscscsssssss"
       inkscape:connector-curvature="0"
       id="path4593"
       d="m 104.95542,119.35524 c 2.22909,-2.59759 4.06169,-7.97677 6.89406,-8.01203 4.15726,-0.0517 4.51495,4.32514 7.45305,7.26673 1.09448,1.74089 7.2134,3.57827 14.70054,4.70581 8.05013,1.21233 18.72459,-2.37883 23.86902,2.37459 3.82519,4.41741 8.54019,7.3951 7.99245,10.265 -0.73541,3.85317 -13.10528,2.66758 -15.81817,2.59151 -1.03224,-0.029 -5.40624,-3.21196 -10.30235,-3.17829 -6.26753,0.0431 -13.62861,3.21526 -18.47721,2.10182 -7.36238,-1.69071 -8.20363,-5.31085 -9.60366,-6.74923 -1.64389,-1.68891 -6.92694,-1.2936 -9.50263,-4.28552 -1.98251,-2.30289 0.99104,-4.97833 2.7949,-7.08039 z"
       style="display:inline;opacity:1;fill:#d7eef4;stroke:#000000;stroke-width:0.26458332px;stroke-linecap:butt;stroke-linejoin:miter;stroke-opacity:0" />
    <path
       sodipodi:nodetypes="sscscsssssss"
       inkscape:connector-curvature="0"
       id="path4593-7"
       d="m 106.65241,117.12802 c 2.07922,-2.37019 3.7886,-7.27845 6.43053,-7.31062 3.87773,-0.0472 4.21137,3.9465 6.95193,6.63057 1.02088,1.58848 6.72839,3.26501 13.71212,4.29385 7.50886,1.10619 17.4656,-2.17058 22.26414,2.1667 3.56799,4.03069 7.96596,6.74771 7.45506,9.36636 -0.68597,3.51584 -12.22413,2.43404 -14.7546,2.36464 -0.96285,-0.0265 -5.04276,-2.93077 -9.60965,-2.90005 -5.84612,0.0393 -12.71227,2.93378 -17.23487,1.91781 -6.86736,-1.54269 -7.65204,-4.8459 -8.95793,-6.15837 -1.53336,-1.54105 -6.46119,-1.18035 -8.86371,-3.91035 -1.84921,-2.10129 0.92441,-4.54249 2.60698,-6.46054 z"
       style="display:inline;opacity:1;fill:#ffffff;fill-opacity:1;stroke:#000000;stroke-width:0.24409229px;stroke-linecap:butt;stroke-linejoin:miter;stroke-opacity:0" />
  </g>
</svg>
