<?xml version="1.0" encoding="UTF-8" standalone="no"?>
<!-- Created with Inkscape (http://www.inkscape.org/) -->

<svg
   xmlns:dc="http://purl.org/dc/elements/1.1/"
   xmlns:cc="http://creativecommons.org/ns#"
   xmlns:rdf="http://www.w3.org/1999/02/22-rdf-syntax-ns#"
   xmlns:svg="http://www.w3.org/2000/svg"
   xmlns="http://www.w3.org/2000/svg"
   xmlns:sodipodi="http://sodipodi.sourceforge.net/DTD/sodipodi-0.dtd"
   xmlns:inkscape="http://www.inkscape.org/namespaces/inkscape"
   width="210mm"
   height="297mm"
   viewBox="0 0 744.09448819 1052.3622047"
   id="svg2"
   version="1.1"
   inkscape:version="0.91 r13725"
   sodipodi:docname="Instructions.svg">
  <defs
     id="defs4">
    <inkscape:path-effect
       effect="powerstroke"
       id="path-effect4147"
       is_visible="true"
       offset_points="0,0.5"
       sort_points="true"
       interpolator_type="CubicBezierJohan"
       interpolator_beta="0.2"
       start_linecap_type="zerowidth"
       linejoin_type="round"
       miter_limit="4"
       end_linecap_type="zerowidth"
       cusp_linecap_type="round" />
  </defs>
  <sodipodi:namedview
     id="base"
     pagecolor="#ffffff"
     bordercolor="#666666"
     borderopacity="1.0"
     inkscape:pageopacity="0.0"
     inkscape:pageshadow="2"
     inkscape:zoom="0.35"
     inkscape:cx="-1076.477"
     inkscape:cy="148.13169"
     inkscape:document-units="px"
     inkscape:current-layer="layer4"
     showgrid="false"
     showborder="false"
     inkscape:window-width="1920"
     inkscape:window-height="1017"
     inkscape:window-x="-8"
     inkscape:window-y="-8"
     inkscape:window-maximized="1" />
  <metadata
     id="metadata7">
    <rdf:RDF>
      <cc:Work
         rdf:about="">
        <dc:format>image/svg+xml</dc:format>
        <dc:type
           rdf:resource="http://purl.org/dc/dcmitype/StillImage" />
        <dc:title></dc:title>
      </cc:Work>
    </rdf:RDF>
  </metadata>
  <g
     inkscape:groupmode="layer"
     id="layer2"
     inkscape:label="bg"
     sodipodi:insensitive="true"
     style="display:none">
    <rect
       style="fill:#000000;fill-opacity:1;fill-rule:evenodd;stroke:none;stroke-width:0.2;stroke-miterlimit:4;stroke-dasharray:none;stroke-opacity:1"
       id="rect4139"
       width="2857.1428"
       height="2134.2856"
       x="-1380"
       y="-510.49496" />
  </g>
  <g
     inkscape:label="Left"
     inkscape:groupmode="layer"
     id="layer1"
     style="display:none"
     sodipodi:insensitive="true">
    <g
       id="g4188"
       inkscape:export-xdpi="6.9383273"
       inkscape:export-ydpi="6.9383273">
      <path
         id="rect4143"
         d="m -465.71484,-41.923828 c -75.97723,0 -137.14258,61.165353 -137.14258,137.142578 l 0,1022.85745 c 0,75.9772 61.16535,137.1426 137.14258,137.1426 l 1022.85742,0 c 75.97722,0 137.14258,-61.1654 137.14258,-137.1426 l 0,-1022.85745 c 0,-75.977225 -61.16536,-137.142578 -137.14258,-137.142578 l -1022.85742,0 z m 439.449215,424.503908 1.460937,108.59765 501.423828,0 c 20.04958,0 36.18945,16.14183 36.18945,36.19141 l 0,167.61914 c 0,20.04958 -16.13987,36.18945 -36.18945,36.18945 l -498.197265,0 L -20.125,839.21875 -418.65625,616.2168 -26.265625,382.58008 Z"
         style="fill:#cccccc;fill-opacity:0.47486034;fill-rule:evenodd;stroke:none;stroke-width:0.2;stroke-miterlimit:4;stroke-dasharray:none;stroke-opacity:1"
         inkscape:connector-curvature="0" />
      <path
         style="fill:#999999;fill-opacity:0.31284916;fill-rule:evenodd;stroke:#000000;stroke-width:2;stroke-miterlimit:4;stroke-dasharray:none;stroke-opacity:0.25698326"
         d="m -26.225776,382.49926 -392.390604,233.63672 398.531204,223.00196 -1.4531,-108.04102 498.197296,0 c 20.0495,0 36.1894,-16.13987 36.1894,-36.18945 l 0,-167.61914 c 0,-20.04958 -16.1399,-36.19141 -36.1894,-36.19141 l -501.423896,0 -1.4609,-108.59766 z"
         id="path4161"
         inkscape:connector-curvature="0" />
    </g>
  </g>
  <g
     inkscape:groupmode="layer"
     id="layer3"
     inkscape:label="Right"
     style="display:none"
     sodipodi:insensitive="true">
    <path
       inkscape:connector-curvature="0"
       id="path4171"
       d="m 557.14258,-41.923828 c 75.97723,0 137.14258,61.165353 137.14258,137.142578 l 0,1022.85745 c 0,75.9772 -61.16535,137.1426 -137.14258,137.1426 l -1022.85742,0 c -75.97722,0 -137.14258,-61.1654 -137.14258,-137.1426 l 0,-1022.85745 c 0,-75.977225 61.16536,-137.142578 137.14258,-137.142578 l 1022.85742,0 z m -439.44921,424.503908 -1.46094,108.59765 -501.42383,0 c -20.04958,0 -36.18945,16.14183 -36.18945,36.19141 l 0,167.61914 c 0,20.04958 16.13987,36.18945 36.18945,36.18945 l 498.19727,0 -1.45313,108.04102 L 510.08399,616.2168 117.69337,382.58008 Z"
       style="fill:#cccccc;fill-opacity:0.47486034;fill-rule:evenodd;stroke:none;stroke-width:0.2;stroke-miterlimit:4;stroke-dasharray:none;stroke-opacity:1" />
    <path
       style="fill:#999999;fill-opacity:0.31284916;fill-rule:evenodd;stroke:#000000;stroke-width:2;stroke-miterlimit:4;stroke-dasharray:none;stroke-opacity:0.25882353"
       d="m 117.65352,382.49926 392.3906,233.63672 -398.5312,223.00196 1.4531,-108.04102 -498.1973,0 c -20.0495,0 -36.1894,-16.13987 -36.1894,-36.18945 l 0,-167.61914 c 0,-20.04958 16.1399,-36.19141 36.1894,-36.19141 l 501.4239,0 1.4609,-108.59766 z"
       id="path4173"
       inkscape:connector-curvature="0" />
  </g>
  <g
     inkscape:groupmode="layer"
     id="layer4"
     inkscape:label="e"
     style="display:inline">
    <g
       id="g4193"
       transform="translate(60,17.142857)"
       inkscape:export-xdpi="6.9383273"
       inkscape:export-ydpi="6.9383273">
      <path
         inkscape:connector-curvature="0"
         id="rect4163"
         d="m -848.57227,192.93359 c -75.97714,0 -137.14257,61.16544 -137.14257,137.14258 l 0,1022.85743 c 0,75.9771 61.16543,137.1426 137.14257,137.1426 l 1022.85743,0 c 75.97714,0 137.14257,-61.1655 137.14257,-137.1426 l 0,-1022.85743 c 0,-75.97714 -61.16543,-137.14258 -137.14257,-137.14258 l -1022.85743,0 z m 326.2461,293.875 388.76758,0 c 23.47143,0 40.826562,5.28852 52.066402,15.86719 11.570424,10.24809 17.355469,23.80235 17.355469,40.66211 0,17.19034 -5.785045,31.07562 -17.355469,41.6543 -11.23984,10.24809 -28.594972,15.37109 -52.066402,15.37109 l -331.74024,0 0,178.51563 305.45899,0 c 22.47968,0 39.17277,5.123 50.08203,15.37109 11.239838,9.91751 16.861326,23.14075 16.861326,39.66992 0,16.52918 -5.455978,30.08344 -16.365236,40.66211 -10.90926,10.24809 -27.76786,15.37305 -50.57812,15.37305 l -305.45899,0 0,206.77932 343.14453,0 c 23.14085,0 40.495986,5.456 52.066409,16.3652 11.901008,10.5787 17.851563,24.793 17.851563,42.6445 0,17.1904 -5.950555,31.2392 -17.851563,42.1485 -11.570423,10.5787 -28.925559,15.8691 -52.066409,15.8691 l -400.17187,0 c -32.0666,0 -55.20678,-7.1072 -69.42188,-21.3222 -13.88451,-14.2151 -20.82617,-37.1918 -20.82617,-68.9278 l 0,-546.45506 c 0,-21.15735 3.14079,-38.34697 9.42188,-51.57031 6.28108,-13.55393 16.03251,-23.30536 29.25586,-29.25586 13.55392,-6.28109 30.74355,-9.42188 51.57031,-9.42188 z"
         style="fill:#cccccc;fill-opacity:0.4745098;fill-rule:evenodd;stroke:none;stroke-width:0.2;stroke-miterlimit:4;stroke-dasharray:none;stroke-opacity:1" />
      <flowRoot
         xml:space="preserve"
         id="flowRoot4182"
         style="font-style:normal;font-weight:normal;font-size:1015.5526123px;line-height:125%;font-family:sans-serif;text-align:center;letter-spacing:0px;word-spacing:0px;text-anchor:middle;fill:#999999;fill-opacity:0.31372549;stroke:#000000;stroke-width:1px;stroke-linecap:butt;stroke-linejoin:miter;stroke-opacity:0.25882353"
         transform="translate(-183.14286,-193.14285)"><flowRegion
           id="flowRegion4184"><rect
             id="rect4186"
             width="1895.6982"
             height="1748.6849"
             x="-1117.7283"
             y="369.99808"
             style="font-size:1015.5526123px;text-align:center;text-anchor:middle;fill:#999999;fill-opacity:0.31372549;stroke:#000000;stroke-opacity:0.25882353" /></flowRegion><flowPara
           id="flowPara4188"
           style="font-style:normal;font-variant:normal;font-weight:normal;font-stretch:normal;font-family:'Arial Rounded MT Bold';-inkscape-font-specification:'Arial Rounded MT Bold, ';fill:#999999;fill-opacity:0.31372549;stroke:#000000;stroke-opacity:0.25882353">E</flowPara></flowRoot>    </g>
  </g>
</svg>
