<?xml version="1.0" encoding="UTF-8" standalone="no"?>
<!-- Created with Inkscape (http://www.inkscape.org/) -->

<svg
   xmlns:dc="http://purl.org/dc/elements/1.1/"
   xmlns:cc="http://creativecommons.org/ns#"
   xmlns:rdf="http://www.w3.org/1999/02/22-rdf-syntax-ns#"
   xmlns:svg="http://www.w3.org/2000/svg"
   xmlns="http://www.w3.org/2000/svg"
   xmlns:sodipodi="http://sodipodi.sourceforge.net/DTD/sodipodi-0.dtd"
   xmlns:inkscape="http://www.inkscape.org/namespaces/inkscape"
   width="297mm"
   height="210mm"
   viewBox="0 0 297 210"
   version="1.1"
   id="svg3728"
   inkscape:version="0.92.3 (2405546, 2018-03-11)"
   sodipodi:docname="tent.svg">
  <defs
     id="defs3722" />
  <sodipodi:namedview
     id="base"
     pagecolor="#ffffff"
     bordercolor="#666666"
     borderopacity="1.0"
     inkscape:pageopacity="0.0"
     inkscape:pageshadow="2"
     inkscape:zoom="1.42"
     inkscape:cx="493.36876"
     inkscape:cy="350.85192"
     inkscape:document-units="mm"
     inkscape:current-layer="layer2"
     showgrid="false"
     inkscape:pagecheckerboard="true"
     inkscape:showpageshadow="false"
     showborder="true"
     inkscape:snap-grids="false"
     inkscape:snap-to-guides="false"
     inkscape:object-nodes="false"
     inkscape:window-width="1920"
     inkscape:window-height="1017"
     inkscape:window-x="-8"
     inkscape:window-y="-8"
     inkscape:window-maximized="1" />
  <metadata
     id="metadata3725">
    <rdf:RDF>
      <cc:Work
         rdf:about="">
        <dc:format>image/svg+xml</dc:format>
        <dc:type
           rdf:resource="http://purl.org/dc/dcmitype/StillImage" />
        <dc:title></dc:title>
      </cc:Work>
    </rdf:RDF>
  </metadata>
  <path
     style="fill:#89a02c;stroke:#000000;stroke-width:0.26458332px;stroke-linecap:butt;stroke-linejoin:miter;stroke-opacity:0.01507538"
     d="m 108.91329,84.003196 c 0,0 13.31451,-2.294079 19.83103,-4.567005 5.7717,-2.013135 17.03362,-8.291179 17.03362,-8.291179 0,0 18.86402,19.950322 25.90352,32.458728 7.03949,12.5084 17.45936,38.36963 17.45936,38.36963 l -37.99054,17.08025 c 0,0 -11.26428,-25.29828 -18.30378,-37.80668 -7.03949,-12.50841 -23.93321,-37.243744 -23.93321,-37.243744 z"
     id="path4577"
     inkscape:connector-curvature="0"
     sodipodi:nodetypes="cscsccsc" />
  <path
     style="fill:#668000;stroke:#000000;stroke-width:0.26458332px;stroke-linecap:butt;stroke-linejoin:miter;stroke-opacity:0"
     d="m 108.91329,84.003196 c 0,0 -12.373922,26.389994 -19.68677,38.740584 -7.312848,12.35059 -17.716468,31.98527 -17.716468,31.98527 l 79.640228,4.32457 c 0,0 -11.07127,-25.86123 -18.11076,-38.36963 -7.0395,-12.50841 -24.12623,-36.680794 -24.12623,-36.680794 z"
     id="path4579"
     inkscape:connector-curvature="0"
     sodipodi:nodetypes="czccsc" />
  <path
     style="fill:#677821;stroke:#000000;stroke-width:0.26458332px;stroke-linecap:butt;stroke-linejoin:miter;stroke-opacity:0"
     d="m 155.87558,86.229243 c 0,0 1.78958,25.603947 -0.14075,35.324707 -1.87958,9.46514 3.23693,31.94703 3.23693,31.94703 3.31938,-4.7011 1.78017,-17.2545 11.17057,-26.37652 5.48097,-5.32432 20.82802,-22.1396 20.82802,-22.1396 0,0 -11.9385,9.28034 -11.14191,7.08843 0.77047,-2.12002 8.16268,-12.384739 8.16268,-12.384739 0,0 -9.06777,7.243349 -9.1615,5.349629 -0.1385,-2.79847 9.1615,-5.349629 9.1615,-5.349629 -20.53061,2.694549 -22.24502,-7.990029 -32.11554,-13.459308 z"
     id="path4581"
     inkscape:connector-curvature="0"
     sodipodi:nodetypes="cscscscscc" />
  <path
     style="fill:#22241c;stroke:#000000;stroke-width:0.26458332px;stroke-linecap:butt;stroke-linejoin:miter;stroke-opacity:0"
     d="m 155.87558,86.229243 c 0,0 -5.72326,30.305117 -5.20723,41.517077 0.51603,11.21195 8.30341,25.75466 8.30341,25.75466 0,0 -3.9335,-24.73757 -1.65117,-33.54072 2.25915,-8.71377 -1.44501,-33.731017 -1.44501,-33.731017 z"
     id="path4583"
     inkscape:connector-curvature="0"
     sodipodi:nodetypes="cscsc" />
  <g
     inkscape:label="Layer 1"
     inkscape:groupmode="layer"
     id="layer1"
     style="display:inline;opacity:1"
     transform="translate(0,-87)">
    <path
       transform="translate(0,87)"
       style="fill:#89a02c;stroke:#000000;stroke-width:0.26458332px;stroke-linecap:butt;stroke-linejoin:miter;stroke-opacity:0"
       d="m 111.2368,91.869134 c 0,0 -13.571452,17.905666 -20.023174,31.787706 -4.139828,8.90758 -13.70189,28.76834 -13.70189,28.76834 0,0 12.093444,1.95941 17.301697,2.28698 4.667038,0.29352 14.560097,0.69425 14.560097,0.69425 z"
       id="path4595"
       inkscape:connector-curvature="0"
       sodipodi:nodetypes="cscscc" />
    <path
       style="display:inline;opacity:1;fill:#89a02c;stroke:#000000;stroke-width:0.26458332px;stroke-linecap:butt;stroke-linejoin:miter;stroke-opacity:0"
       d="m 112.62747,179.10404 c 0,0 13.38511,21.25954 18.71888,30.66975 4.84356,8.54536 17.75434,34.78922 17.75434,34.78922 0,0 -16.70487,-1.63922 -21.91313,-1.31165 -4.66703,0.29352 -16.0507,-1.16902 -16.0507,-1.16902 z"
       id="path4595-1"
       inkscape:connector-curvature="0"
       sodipodi:nodetypes="cscscc" />
  </g>
  <g
     inkscape:groupmode="layer"
     id="layer2"
     inkscape:label="Layer 2"
     style="display:inline">
    <path
       style="display:inline;opacity:1;fill:#d7eef4;stroke:#000000;stroke-width:0.26458332px;stroke-linecap:butt;stroke-linejoin:miter;stroke-opacity:0"
       d="m 72.480927,145.5311 c 2.415424,-1.47963 2.757413,-4.99555 5.589789,-5.03081 4.157256,-0.0517 0.974741,7.12004 3.91285,10.06163 2.271252,3.61267 11.228704,1.26376 8.571011,5.40346 -2.824295,3.80092 -5.141793,2.74127 -9.875293,2.60856 -4.360073,-0.12224 -8.509932,2.75299 -11.552232,-0.37264 -1.643887,-1.68892 -1.232078,-4.58803 -0.745304,-6.89408 0.57209,-2.71022 1.737182,-4.32921 4.099179,-5.77612 z"
       id="path4593"
       inkscape:connector-curvature="0"
       sodipodi:nodetypes="ssccssss" />
    <path
       style="display:inline;fill:#d7eef4;stroke:#000000;stroke-width:0.26458332px;stroke-linecap:butt;stroke-linejoin:miter;stroke-opacity:0.03517588"
       d="m 106.39231,84.788737 c -3.316,2.138467 -4.83793,8.576983 -4.28551,12.483861 0.48578,3.435592 6.42776,-4.53868 9.68897,-3.353875 4.04859,1.470868 4.59472,8.135847 8.19836,5.776115 2.86158,-1.873813 0.98429,-8.927934 2.23591,-12.111207 0.678,-1.72438 2.47674,-4.03551 3.72653,-5.403464 2.47729,-2.71159 7.33337,0.07538 10.80693,-1.117957 2.86078,-0.982821 5.84662,-3.834884 8.75733,-4.658158 3.05967,-0.865407 7.11606,6.083213 8.38468,3.167549 1.81691,-4.175807 -1.70026,-8.532679 -3.91285,-9.502641 -2.5035,-1.097489 -5.54974,-0.862181 -8.19836,-0.186327 -2.2916,0.584751 -4.1327,2.30372 -6.14876,3.540199 -2.9076,1.783277 -5.47487,4.158655 -8.57101,5.589788 -1.5876,0.733839 -3.30997,1.178038 -5.03081,1.490613 -2.57311,0.467382 -5.21671,0.378833 -7.82571,0.558977 -2.79444,0.192948 -5.47166,2.20842 -7.8257,3.726527 z"
       id="path4591"
       inkscape:connector-curvature="0"
       sodipodi:nodetypes="ssssssssssssssss" />
    <path
       style="display:inline;opacity:1;fill:#ffffff;stroke:#000000;stroke-width:0.25402993px;stroke-linecap:butt;stroke-linejoin:miter;stroke-opacity:0"
       d="m 74.036714,144.21959 c 2.31908,-1.4206 2.647428,-4.79629 5.36683,-4.83014 3.991436,-0.0497 0.935861,6.83604 3.756779,9.6603 2.180658,3.46857 10.780825,1.21336 8.22914,5.18793 -2.711643,3.64932 -4.936703,2.63194 -9.481399,2.50451 -4.186163,-0.11736 -8.170497,2.64319 -11.091449,-0.35777 -1.578318,-1.62155 -1.182934,-4.40503 -0.715576,-6.6191 0.549271,-2.60212 1.667891,-4.15653 3.935675,-5.54573 z"
       id="path4593-6"
       inkscape:connector-curvature="0"
       sodipodi:nodetypes="ssccssss" />
    <path
       style="display:inline;fill:#ffffff;stroke:#000000;stroke-width:0.2535038px;stroke-linecap:butt;stroke-linejoin:miter;stroke-opacity:0.03517588"
       d="m 106.75209,82.682282 c -3.17714,2.048918 -4.63534,8.217819 -4.10605,11.961097 0.46543,3.291723 6.15859,-4.348624 9.28324,-3.213432 3.87905,1.409275 4.40231,7.795151 7.85505,5.53424 2.74175,-1.795344 0.94307,-8.554075 2.14228,-11.604048 0.64961,-1.652171 2.37302,-3.866522 3.57048,-5.177193 2.37355,-2.598041 7.02628,0.07222 10.35438,-1.071142 2.74099,-0.941665 5.6018,-3.674297 8.39062,-4.463096 2.93154,-0.829168 6.81807,5.828477 8.03357,3.034907 1.74082,-4.000944 -1.62906,-8.17537 -3.749,-9.104715 -2.39867,-1.051531 -5.31734,-0.826077 -7.85505,-0.178524 -2.19564,0.560264 -3.95964,2.207251 -5.89128,3.391952 -2.78584,1.708601 -5.24561,3.98451 -8.2121,5.355714 -1.52112,0.703109 -3.17136,1.128707 -4.82014,1.428193 -2.46536,0.44781 -4.99826,0.362969 -7.49801,0.535569 -2.67742,0.184868 -5.24253,2.115942 -7.49799,3.570478 z"
       id="path4591-1"
       inkscape:connector-curvature="0"
       sodipodi:nodetypes="ssssssssssssssss" />
  </g>
</svg>
