<?xml version="1.0" encoding="UTF-8" standalone="no"?>
<!-- Created with Inkscape (http://www.inkscape.org/) -->

<svg
   xmlns:dc="http://purl.org/dc/elements/1.1/"
   xmlns:cc="http://creativecommons.org/ns#"
   xmlns:rdf="http://www.w3.org/1999/02/22-rdf-syntax-ns#"
   xmlns:svg="http://www.w3.org/2000/svg"
   xmlns="http://www.w3.org/2000/svg"
   xmlns:sodipodi="http://sodipodi.sourceforge.net/DTD/sodipodi-0.dtd"
   xmlns:inkscape="http://www.inkscape.org/namespaces/inkscape"
   width="210mm"
   height="297mm"
   viewBox="0 0 744.09448819 1052.3622047"
   id="svg2"
   version="1.1"
   inkscape:version="0.91 r13725"
   inkscape:export-filename="D:\Documents\GitHub\LIT230-Final-Project\Assets\Objects\Wood_house.png"
   inkscape:export-xdpi="11.1354"
   inkscape:export-ydpi="11.1354"
   sodipodi:docname="Wood_house.svg">
  <defs
     id="defs4" />
  <sodipodi:namedview
     id="base"
     pagecolor="#ffffff"
     bordercolor="#666666"
     borderopacity="1.0"
     inkscape:pageopacity="0.0"
     inkscape:pageshadow="2"
     inkscape:zoom="0.056568542"
     inkscape:cx="53.931225"
     inkscape:cy="-462.4279"
     inkscape:document-units="px"
     inkscape:current-layer="layer4"
     showgrid="false"
     showborder="false"
     inkscape:window-width="1920"
     inkscape:window-height="1017"
     inkscape:window-x="1912"
     inkscape:window-y="-8"
     inkscape:window-maximized="1" />
  <metadata
     id="metadata7">
    <rdf:RDF>
      <cc:Work
         rdf:about="">
        <dc:format>image/svg+xml</dc:format>
        <dc:type
           rdf:resource="http://purl.org/dc/dcmitype/StillImage" />
        <dc:title></dc:title>
      </cc:Work>
    </rdf:RDF>
  </metadata>
  <g
     inkscape:label="House"
     inkscape:groupmode="layer"
     id="layer1"
     style="display:inline"
     sodipodi:insensitive="true">
    <g
       id="g4144"
       transform="matrix(1.6979236,0,0,2.0001378,-38.41202,21.074576)">
      <rect
         ry="37.142857"
         y="706.64795"
         x="-882.85718"
         height="108.57143"
         width="1760"
         id="rect4136"
         style="fill:#c87137;fill-opacity:1;fill-rule:evenodd;stroke:none;stroke-width:0.2;stroke-miterlimit:4;stroke-dasharray:none;stroke-opacity:0.25882353" />
      <rect
         style="fill:#d38d5f;fill-opacity:1;fill-rule:evenodd;stroke:none;stroke-width:0.2;stroke-miterlimit:4;stroke-dasharray:none;stroke-opacity:0.25882353"
         id="rect4140"
         width="1745.7142"
         height="91.428566"
         x="-875"
         y="714.36224"
         ry="31.278194" />
      <rect
         ry="31.278194"
         y="714.36224"
         x="-875"
         height="91.428566"
         width="1745.7142"
         id="rect4142"
         style="fill:#d38d5f;fill-opacity:1;fill-rule:evenodd;stroke:none;stroke-width:0.2;stroke-miterlimit:4;stroke-dasharray:none;stroke-opacity:0.25882353" />
    </g>
    <g
       id="g4157"
       transform="matrix(1.6979236,0,0,2.0001378,-38.41202,-194.94031)">
      <rect
         style="fill:#c87137;fill-opacity:1;fill-rule:evenodd;stroke:none;stroke-width:0.2;stroke-miterlimit:4;stroke-dasharray:none;stroke-opacity:0.25882353"
         id="rect4159"
         width="1760"
         height="108.57143"
         x="-882.85718"
         y="706.64795"
         ry="37.142857" />
      <rect
         ry="31.278194"
         y="714.36224"
         x="-875"
         height="91.428566"
         width="1745.7142"
         id="rect4161"
         style="fill:#d38d5f;fill-opacity:1;fill-rule:evenodd;stroke:none;stroke-width:0.2;stroke-miterlimit:4;stroke-dasharray:none;stroke-opacity:0.25882353" />
      <rect
         style="fill:#d38d5f;fill-opacity:1;fill-rule:evenodd;stroke:none;stroke-width:0.2;stroke-miterlimit:4;stroke-dasharray:none;stroke-opacity:0.25882353"
         id="rect4163"
         width="1745.7142"
         height="91.428566"
         x="-875"
         y="714.36224"
         ry="31.278194" />
    </g>
    <g
       id="g4165"
       transform="matrix(1.6979236,0,0,2.0001378,-38.41202,-410.95519)">
      <rect
         style="fill:#c87137;fill-opacity:1;fill-rule:evenodd;stroke:none;stroke-width:0.2;stroke-miterlimit:4;stroke-dasharray:none;stroke-opacity:0.25882353"
         id="rect4167"
         width="1760"
         height="108.57143"
         x="-882.85718"
         y="706.64795"
         ry="37.142857" />
      <rect
         ry="31.278194"
         y="714.36224"
         x="-875"
         height="91.428566"
         width="1745.7142"
         id="rect4169"
         style="fill:#d38d5f;fill-opacity:1;fill-rule:evenodd;stroke:none;stroke-width:0.2;stroke-miterlimit:4;stroke-dasharray:none;stroke-opacity:0.25882353" />
      <rect
         style="fill:#d38d5f;fill-opacity:1;fill-rule:evenodd;stroke:none;stroke-width:0.2;stroke-miterlimit:4;stroke-dasharray:none;stroke-opacity:0.25882353"
         id="rect4171"
         width="1745.7142"
         height="91.428566"
         x="-875"
         y="714.36224"
         ry="31.278194" />
    </g>
    <g
       transform="matrix(1.6979236,0,0,2.0001378,-38.41202,-626.97007)"
       id="g4173">
      <rect
         ry="37.142857"
         y="706.64795"
         x="-882.85718"
         height="108.57143"
         width="1760"
         id="rect4175"
         style="fill:#c87137;fill-opacity:1;fill-rule:evenodd;stroke:none;stroke-width:0.2;stroke-miterlimit:4;stroke-dasharray:none;stroke-opacity:0.25882353" />
      <rect
         style="fill:#d38d5f;fill-opacity:1;fill-rule:evenodd;stroke:none;stroke-width:0.2;stroke-miterlimit:4;stroke-dasharray:none;stroke-opacity:0.25882353"
         id="rect4177"
         width="1745.7142"
         height="91.428566"
         x="-875"
         y="714.36224"
         ry="31.278194" />
      <rect
         ry="31.278194"
         y="714.36224"
         x="-875"
         height="91.428566"
         width="1745.7142"
         id="rect4179"
         style="fill:#d38d5f;fill-opacity:1;fill-rule:evenodd;stroke:none;stroke-width:0.2;stroke-miterlimit:4;stroke-dasharray:none;stroke-opacity:0.25882353" />
    </g>
    <g
       id="g4181"
       transform="matrix(1.6979236,0,0,2.0001378,-38.41202,-842.98495)">
      <rect
         style="fill:#c87137;fill-opacity:1;fill-rule:evenodd;stroke:none;stroke-width:0.2;stroke-miterlimit:4;stroke-dasharray:none;stroke-opacity:0.25882353"
         id="rect4183"
         width="1760"
         height="108.57143"
         x="-882.85718"
         y="706.64795"
         ry="37.142857" />
      <rect
         ry="31.278194"
         y="714.36224"
         x="-875"
         height="91.428566"
         width="1745.7142"
         id="rect4185"
         style="fill:#d38d5f;fill-opacity:1;fill-rule:evenodd;stroke:none;stroke-width:0.2;stroke-miterlimit:4;stroke-dasharray:none;stroke-opacity:0.25882353" />
      <rect
         style="fill:#d38d5f;fill-opacity:1;fill-rule:evenodd;stroke:none;stroke-width:0.2;stroke-miterlimit:4;stroke-dasharray:none;stroke-opacity:0.25882353"
         id="rect4187"
         width="1745.7142"
         height="91.428566"
         x="-875"
         y="714.36224"
         ry="31.278194" />
    </g>
    <g
       transform="matrix(1.6979236,0,0,2.0001378,-38.41202,-1058.9998)"
       id="g4189">
      <rect
         ry="37.142857"
         y="706.64795"
         x="-882.85718"
         height="108.57143"
         width="1760"
         id="rect4191"
         style="fill:#c87137;fill-opacity:1;fill-rule:evenodd;stroke:none;stroke-width:0.2;stroke-miterlimit:4;stroke-dasharray:none;stroke-opacity:0.25882353" />
      <rect
         style="fill:#d38d5f;fill-opacity:1;fill-rule:evenodd;stroke:none;stroke-width:0.2;stroke-miterlimit:4;stroke-dasharray:none;stroke-opacity:0.25882353"
         id="rect4193"
         width="1745.7142"
         height="91.428566"
         x="-875"
         y="714.36224"
         ry="31.278194" />
      <rect
         ry="31.278194"
         y="714.36224"
         x="-875"
         height="91.428566"
         width="1745.7142"
         id="rect4195"
         style="fill:#d38d5f;fill-opacity:1;fill-rule:evenodd;stroke:none;stroke-width:0.2;stroke-miterlimit:4;stroke-dasharray:none;stroke-opacity:0.25882353" />
    </g>
    <g
       transform="translate(982.24444,1280.1198)"
       id="g4323">
      <rect
         ry="68.690376"
         y="-711.09613"
         x="-2519.3044"
         height="217.15781"
         width="204.36505"
         id="rect4325"
         style="fill:#c87137;fill-opacity:1;fill-rule:evenodd;stroke:none;stroke-width:0.2;stroke-miterlimit:4;stroke-dasharray:none;stroke-opacity:0.25882353" />
      <rect
         style="fill:#784421;fill-opacity:1;fill-rule:evenodd;stroke:none;stroke-width:0.2;stroke-miterlimit:4;stroke-dasharray:none;stroke-opacity:0.25882353"
         id="rect4327"
         width="167.99956"
         height="178.51593"
         x="-2501.1421"
         y="-692.93372"
         ry="56.46735" />
      <path
         sodipodi:type="spiral"
         style="fill:none;fill-rule:evenodd;stroke:#ffffff;stroke-width:3.15933132;stroke-linecap:butt;stroke-linejoin:miter;stroke-miterlimit:4;stroke-dasharray:none;stroke-opacity:1"
         id="path4329"
         sodipodi:cx="-2408.7283"
         sodipodi:cy="-610.99774"
         sodipodi:expansion="1"
         sodipodi:revolution="3"
         sodipodi:radius="89.412003"
         sodipodi:argument="-21.501192"
         sodipodi:t0="0"
         d="m -2408.7283,-610.99774 c -3.9555,-2.10963 0.8922,-6.37285 3.5064,-6.57442 7.0841,-0.54624 10.7377,7.62868 9.6425,13.58711 -1.9592,10.65825 -13.9965,15.50054 -23.6679,12.71055 -14.1932,-4.09441 -20.3695,-20.43795 -15.7786,-33.74863 6.1189,-17.74104 26.904,-25.28158 43.8294,-18.84669 21.2989,8.09766 30.2155,33.38129 21.9147,53.91016 -10.0534,24.86322 -39.8649,35.16212 -63.9909,24.98282 -28.4317,-11.99595 -40.1166,-46.35234 -28.0509,-74.07168 13.9303,-32.00307 52.8424,-45.07632 84.1525,-31.11896 35.5764,15.85925 50.0397,59.33434 34.187,94.23321 -17.7844,39.15126 -65.8276,55.00584 -104.314,37.25509 -42.7272,-19.70669 -59.9739,-72.32185 -40.3232,-114.39473" />
    </g>
    <g
       transform="translate(982.24444,1716.5057)"
       id="g4339">
      <rect
         ry="68.690376"
         y="-711.09613"
         x="-2519.3044"
         height="217.15781"
         width="204.36505"
         id="rect4341"
         style="fill:#c87137;fill-opacity:1;fill-rule:evenodd;stroke:none;stroke-width:0.2;stroke-miterlimit:4;stroke-dasharray:none;stroke-opacity:0.25882353" />
      <rect
         style="fill:#784421;fill-opacity:1;fill-rule:evenodd;stroke:none;stroke-width:0.2;stroke-miterlimit:4;stroke-dasharray:none;stroke-opacity:0.25882353"
         id="rect4343"
         width="167.99956"
         height="178.51593"
         x="-2501.1421"
         y="-692.93372"
         ry="56.46735" />
      <path
         sodipodi:type="spiral"
         style="fill:none;fill-rule:evenodd;stroke:#ffffff;stroke-width:3.15933132;stroke-linecap:butt;stroke-linejoin:miter;stroke-miterlimit:4;stroke-dasharray:none;stroke-opacity:1"
         id="path4345"
         sodipodi:cx="-2408.7283"
         sodipodi:cy="-610.99774"
         sodipodi:expansion="1"
         sodipodi:revolution="3"
         sodipodi:radius="89.412003"
         sodipodi:argument="-21.501192"
         sodipodi:t0="0"
         d="m -2408.7283,-610.99774 c -3.9555,-2.10963 0.8922,-6.37285 3.5064,-6.57442 7.0841,-0.54624 10.7377,7.62868 9.6425,13.58711 -1.9592,10.65825 -13.9965,15.50054 -23.6679,12.71055 -14.1932,-4.09441 -20.3695,-20.43795 -15.7786,-33.74863 6.1189,-17.74104 26.904,-25.28158 43.8294,-18.84669 21.2989,8.09766 30.2155,33.38129 21.9147,53.91016 -10.0534,24.86322 -39.8649,35.16212 -63.9909,24.98282 -28.4317,-11.99595 -40.1166,-46.35234 -28.0509,-74.07168 13.9303,-32.00307 52.8424,-45.07632 84.1525,-31.11896 35.5764,15.85925 50.0397,59.33434 34.187,94.23321 -17.7844,39.15126 -65.8276,55.00584 -104.314,37.25509 -42.7272,-19.70669 -59.9739,-72.32185 -40.3232,-114.39473" />
    </g>
    <g
       id="g4347"
       transform="translate(982.24434,2145.5247)">
      <rect
         style="fill:#c87137;fill-opacity:1;fill-rule:evenodd;stroke:none;stroke-width:0.2;stroke-miterlimit:4;stroke-dasharray:none;stroke-opacity:0.25882353"
         id="rect4349"
         width="204.36505"
         height="217.15781"
         x="-2519.3044"
         y="-711.09613"
         ry="68.690376" />
      <rect
         ry="56.46735"
         y="-692.93372"
         x="-2501.1421"
         height="178.51593"
         width="167.99956"
         id="rect4351"
         style="fill:#784421;fill-opacity:1;fill-rule:evenodd;stroke:none;stroke-width:0.2;stroke-miterlimit:4;stroke-dasharray:none;stroke-opacity:0.25882353" />
      <path
         d="m -2408.7283,-610.99774 c -3.9555,-2.10963 0.8922,-6.37285 3.5064,-6.57442 7.0841,-0.54624 10.7377,7.62868 9.6425,13.58711 -1.9592,10.65825 -13.9965,15.50054 -23.6679,12.71055 -14.1932,-4.09441 -20.3695,-20.43795 -15.7786,-33.74863 6.1189,-17.74104 26.904,-25.28158 43.8294,-18.84669 21.2989,8.09766 30.2155,33.38129 21.9147,53.91016 -10.0534,24.86322 -39.8649,35.16212 -63.9909,24.98282 -28.4317,-11.99595 -40.1166,-46.35234 -28.0509,-74.07168 13.9303,-32.00307 52.8424,-45.07632 84.1525,-31.11896 35.5764,15.85925 50.0397,59.33434 34.187,94.23321 -17.7844,39.15126 -65.8276,55.00584 -104.314,37.25509 -42.7272,-19.70669 -59.9739,-72.32185 -40.3232,-114.39473"
         sodipodi:t0="0"
         sodipodi:argument="-21.501192"
         sodipodi:radius="89.412003"
         sodipodi:revolution="3"
         sodipodi:expansion="1"
         sodipodi:cy="-610.99774"
         sodipodi:cx="-2408.7283"
         id="path4353"
         style="fill:none;fill-rule:evenodd;stroke:#ffffff;stroke-width:3.15933132;stroke-linecap:butt;stroke-linejoin:miter;stroke-miterlimit:4;stroke-dasharray:none;stroke-opacity:1"
         sodipodi:type="spiral" />
    </g>
    <g
       id="g4363"
       transform="translate(3764.512,1277.5078)">
      <rect
         style="fill:#c87137;fill-opacity:1;fill-rule:evenodd;stroke:none;stroke-width:0.2;stroke-miterlimit:4;stroke-dasharray:none;stroke-opacity:0.25882353"
         id="rect4365"
         width="204.36505"
         height="217.15781"
         x="-2519.3044"
         y="-711.09613"
         ry="68.690376" />
      <rect
         ry="56.46735"
         y="-692.93372"
         x="-2501.1421"
         height="178.51593"
         width="167.99956"
         id="rect4367"
         style="fill:#784421;fill-opacity:1;fill-rule:evenodd;stroke:none;stroke-width:0.2;stroke-miterlimit:4;stroke-dasharray:none;stroke-opacity:0.25882353" />
      <path
         d="m -2408.7283,-610.99774 c -3.9555,-2.10963 0.8922,-6.37285 3.5064,-6.57442 7.0841,-0.54624 10.7377,7.62868 9.6425,13.58711 -1.9592,10.65825 -13.9965,15.50054 -23.6679,12.71055 -14.1932,-4.09441 -20.3695,-20.43795 -15.7786,-33.74863 6.1189,-17.74104 26.904,-25.28158 43.8294,-18.84669 21.2989,8.09766 30.2155,33.38129 21.9147,53.91016 -10.0534,24.86322 -39.8649,35.16212 -63.9909,24.98282 -28.4317,-11.99595 -40.1166,-46.35234 -28.0509,-74.07168 13.9303,-32.00307 52.8424,-45.07632 84.1525,-31.11896 35.5764,15.85925 50.0397,59.33434 34.187,94.23321 -17.7844,39.15126 -65.8276,55.00584 -104.314,37.25509 -42.7272,-19.70669 -59.9739,-72.32185 -40.3232,-114.39473"
         sodipodi:t0="0"
         sodipodi:argument="-21.501192"
         sodipodi:radius="89.412003"
         sodipodi:revolution="3"
         sodipodi:expansion="1"
         sodipodi:cy="-610.99774"
         sodipodi:cx="-2408.7283"
         id="path4369"
         style="fill:none;fill-rule:evenodd;stroke:#ffffff;stroke-width:3.15933132;stroke-linecap:butt;stroke-linejoin:miter;stroke-miterlimit:4;stroke-dasharray:none;stroke-opacity:1"
         sodipodi:type="spiral" />
    </g>
    <g
       id="g4371"
       transform="translate(3764.512,1713.8937)">
      <rect
         style="fill:#c87137;fill-opacity:1;fill-rule:evenodd;stroke:none;stroke-width:0.2;stroke-miterlimit:4;stroke-dasharray:none;stroke-opacity:0.25882353"
         id="rect4373"
         width="204.36505"
         height="217.15781"
         x="-2519.3044"
         y="-711.09613"
         ry="68.690376" />
      <rect
         ry="56.46735"
         y="-692.93372"
         x="-2501.1421"
         height="178.51593"
         width="167.99956"
         id="rect4375"
         style="fill:#784421;fill-opacity:1;fill-rule:evenodd;stroke:none;stroke-width:0.2;stroke-miterlimit:4;stroke-dasharray:none;stroke-opacity:0.25882353" />
      <path
         d="m -2408.7283,-610.99774 c -3.9555,-2.10963 0.8922,-6.37285 3.5064,-6.57442 7.0841,-0.54624 10.7377,7.62868 9.6425,13.58711 -1.9592,10.65825 -13.9965,15.50054 -23.6679,12.71055 -14.1932,-4.09441 -20.3695,-20.43795 -15.7786,-33.74863 6.1189,-17.74104 26.904,-25.28158 43.8294,-18.84669 21.2989,8.09766 30.2155,33.38129 21.9147,53.91016 -10.0534,24.86322 -39.8649,35.16212 -63.9909,24.98282 -28.4317,-11.99595 -40.1166,-46.35234 -28.0509,-74.07168 13.9303,-32.00307 52.8424,-45.07632 84.1525,-31.11896 35.5764,15.85925 50.0397,59.33434 34.187,94.23321 -17.7844,39.15126 -65.8276,55.00584 -104.314,37.25509 -42.7272,-19.70669 -59.9739,-72.32185 -40.3232,-114.39473"
         sodipodi:t0="0"
         sodipodi:argument="-21.501192"
         sodipodi:radius="89.412003"
         sodipodi:revolution="3"
         sodipodi:expansion="1"
         sodipodi:cy="-610.99774"
         sodipodi:cx="-2408.7283"
         id="path4377"
         style="fill:none;fill-rule:evenodd;stroke:#ffffff;stroke-width:3.15933132;stroke-linecap:butt;stroke-linejoin:miter;stroke-miterlimit:4;stroke-dasharray:none;stroke-opacity:1"
         sodipodi:type="spiral" />
    </g>
    <g
       transform="translate(3764.5119,2142.9127)"
       id="g4379">
      <rect
         ry="68.690376"
         y="-711.09613"
         x="-2519.3044"
         height="217.15781"
         width="204.36505"
         id="rect4381"
         style="fill:#c87137;fill-opacity:1;fill-rule:evenodd;stroke:none;stroke-width:0.2;stroke-miterlimit:4;stroke-dasharray:none;stroke-opacity:0.25882353" />
      <rect
         style="fill:#784421;fill-opacity:1;fill-rule:evenodd;stroke:none;stroke-width:0.2;stroke-miterlimit:4;stroke-dasharray:none;stroke-opacity:0.25882353"
         id="rect4383"
         width="167.99956"
         height="178.51593"
         x="-2501.1421"
         y="-692.93372"
         ry="56.46735" />
      <path
         sodipodi:type="spiral"
         style="fill:none;fill-rule:evenodd;stroke:#ffffff;stroke-width:3.15933132;stroke-linecap:butt;stroke-linejoin:miter;stroke-miterlimit:4;stroke-dasharray:none;stroke-opacity:1"
         id="path4385"
         sodipodi:cx="-2408.7283"
         sodipodi:cy="-610.99774"
         sodipodi:expansion="1"
         sodipodi:revolution="3"
         sodipodi:radius="89.412003"
         sodipodi:argument="-21.501192"
         sodipodi:t0="0"
         d="m -2408.7283,-610.99774 c -3.9555,-2.10963 0.8922,-6.37285 3.5064,-6.57442 7.0841,-0.54624 10.7377,7.62868 9.6425,13.58711 -1.9592,10.65825 -13.9965,15.50054 -23.6679,12.71055 -14.1932,-4.09441 -20.3695,-20.43795 -15.7786,-33.74863 6.1189,-17.74104 26.904,-25.28158 43.8294,-18.84669 21.2989,8.09766 30.2155,33.38129 21.9147,53.91016 -10.0534,24.86322 -39.8649,35.16212 -63.9909,24.98282 -28.4317,-11.99595 -40.1166,-46.35234 -28.0509,-74.07168 13.9303,-32.00307 52.8424,-45.07632 84.1525,-31.11896 35.5764,15.85925 50.0397,59.33434 34.187,94.23321 -17.7844,39.15126 -65.8276,55.00584 -104.314,37.25509 -42.7272,-19.70669 -59.9739,-72.32185 -40.3232,-114.39473" />
    </g>
  </g>
  <g
     inkscape:groupmode="layer"
     id="layer4"
     inkscape:label="Roof"
     sodipodi:insensitive="true"
     style="display:inline">
    <g
       id="g4662">
      <path
         transform="matrix(0.89387286,0,0,0.31236828,23.66756,334.49936)"
         inkscape:transform-center-y="-187.66743"
         inkscape:transform-center-x="2.8182946"
         d="M 2006.2499,477.36215 -2175.0557,466.44016 -74.944179,-3149.2158 Z"
         inkscape:randomized="0"
         inkscape:rounded="0"
         inkscape:flatsided="true"
         sodipodi:arg2="1.5734084"
         sodipodi:arg1="0.52621087"
         sodipodi:r2="1207.0431"
         sodipodi:r1="2414.0862"
         sodipodi:cy="-735.13782"
         sodipodi:cx="-81.249992"
         sodipodi:sides="3"
         id="path4634"
         style="fill:#552200;fill-opacity:1;fill-rule:evenodd;stroke:none;stroke-width:20.39699936;stroke-miterlimit:4;stroke-dasharray:none;stroke-opacity:1"
         sodipodi:type="star" />
      <path
         id="rect4636"
         d="m -1583.4102,277.36133 -83.1074,50 3226.9238,0 -82.1093,-50 -3061.7071,0 z"
         style="fill:#502d16;fill-opacity:1;fill-rule:evenodd;stroke:none;stroke-width:20.39699936;stroke-miterlimit:4;stroke-dasharray:none;stroke-opacity:1"
         inkscape:connector-curvature="0" />
      <path
         id="rect4638"
         d="m -1219.8203,58.611328 -83.1055,50.000002 2504.1016,0 -82.1094,-50.000002 -2338.8867,0 z"
         style="fill:#502d16;fill-opacity:1;fill-rule:evenodd;stroke:none;stroke-width:20.39699936;stroke-miterlimit:4;stroke-dasharray:none;stroke-opacity:1"
         inkscape:connector-curvature="0" />
      <path
         id="rect4640"
         d="m -835.45312,-172.63867 -83.10547,50 1739.97656,0 -82.10938,-50 -1574.76171,0 z"
         style="fill:#502d16;fill-opacity:1;fill-rule:evenodd;stroke:none;stroke-width:20.39699936;stroke-miterlimit:4;stroke-dasharray:none;stroke-opacity:1"
         inkscape:connector-curvature="0" />
      <path
         id="rect4642"
         d="m -461.47461,-397.63867 -83.10547,50 996.50586,0 -82.11133,-50 -831.28906,0 z"
         style="fill:#502d16;fill-opacity:1;fill-rule:evenodd;stroke:none;stroke-width:20.39699936;stroke-miterlimit:4;stroke-dasharray:none;stroke-opacity:1"
         inkscape:connector-curvature="0" />
      <path
         id="rect4644"
         d="m -108.27148,-610.13867 -83.10743,50 294.33789,0 -82.111324,-50 -129.119136,0 z"
         style="fill:#502d16;fill-opacity:1;fill-rule:evenodd;stroke:none;stroke-width:20.39699936;stroke-miterlimit:4;stroke-dasharray:none;stroke-opacity:1"
         inkscape:connector-curvature="0" />
    </g>
  </g>
  <g
     inkscape:groupmode="layer"
     id="layer2"
     inkscape:label="Door"
     sodipodi:insensitive="true"
     style="display:inline">
    <g
       id="g4503">
      <rect
         ry="32.478554"
         y="750.74731"
         x="-246.47191"
         height="897.27075"
         width="475.80103"
         id="rect4453"
         style="fill:#784421;fill-opacity:1;fill-rule:evenodd;stroke:#ffffff;stroke-width:1.78167379;stroke-miterlimit:4;stroke-dasharray:none;stroke-opacity:1" />
      <g
         transform="matrix(0.04722136,0,0,0.04722136,258.07366,1121.1312)"
         id="g4479">
        <circle
           style="fill:#ffcc00;fill-opacity:1;fill-rule:evenodd;stroke:#ffffff;stroke-width:4.06573391;stroke-miterlimit:4;stroke-dasharray:none;stroke-opacity:1"
           id="path4457"
           cx="-2428.5715"
           cy="2075.2195"
           r="708.18707" />
        <g
           id="g4465"
           transform="matrix(2.2726112,0,0,2.2726112,2896.8733,-995.9692)">
          <circle
             r="74.285713"
             cy="1292.3623"
             cx="-2342.8569"
             id="path4461"
             style="fill:#000000;fill-opacity:1;fill-rule:evenodd;stroke:none;stroke-width:3.29699993;stroke-miterlimit:4;stroke-dasharray:none;stroke-opacity:1" />
          <path
             inkscape:transform-center-x="-1.1677557e-005"
             transform="matrix(0.55386571,0,0,1,-1054.473,-22.857143)"
             inkscape:transform-center-y="-31.428571"
             d="m -2327.7141,1320.9337 108.8718,188.5714 -217.7436,0 z"
             inkscape:randomized="0"
             inkscape:rounded="0"
             inkscape:flatsided="true"
             sodipodi:arg2="-0.52359878"
             sodipodi:arg1="-1.5707963"
             sodipodi:r2="62.857143"
             sodipodi:r1="125.71429"
             sodipodi:cy="1446.6479"
             sodipodi:cx="-2327.7141"
             sodipodi:sides="3"
             id="path4463"
             style="fill:#000000;fill-opacity:1;fill-rule:evenodd;stroke:none;stroke-width:3.29699993;stroke-miterlimit:4;stroke-dasharray:none;stroke-opacity:1"
             sodipodi:type="star" />
        </g>
      </g>
    </g>
  </g>
  <g
     inkscape:groupmode="layer"
     id="layer3"
     inkscape:label="Windows"
     style="display:inline"
     sodipodi:insensitive="true">
    <g
       id="g4550"
       transform="matrix(0.81315707,0,0,0.81315707,1056.9692,142.04481)">
      <rect
         ry="0"
         y="904.23718"
         x="-2601.7856"
         height="682.0647"
         width="682.0647"
         id="rect4487"
         style="fill:#fff6d5;fill-opacity:1;fill-rule:evenodd;stroke:none;stroke-width:20.39699936;stroke-miterlimit:4;stroke-dasharray:none;stroke-opacity:1" />
      <g
         transform="translate(631.25,-653.125)"
         id="g4520">
        <rect
           style="fill:#a05a2c;fill-opacity:1;fill-rule:evenodd;stroke:none;stroke-width:3.29699993;stroke-miterlimit:4;stroke-dasharray:none;stroke-opacity:1"
           id="rect4489"
           width="31.971781"
           height="682.0647"
           x="-2897.332"
           y="1557.3622" />
        <rect
           y="2550.5713"
           x="1882.4087"
           height="682.0647"
           width="31.971781"
           id="rect4491"
           style="fill:#a05a2c;fill-opacity:1;fill-rule:evenodd;stroke:none;stroke-width:3.29699993;stroke-miterlimit:4;stroke-dasharray:none;stroke-opacity:1"
           transform="matrix(0,1,-1,0,0,0)" />
      </g>
      <rect
         style="fill:none;fill-opacity:1;fill-rule:evenodd;stroke:#784421;stroke-width:20.39699936;stroke-miterlimit:4;stroke-dasharray:none;stroke-opacity:1"
         id="rect4524"
         width="682.0647"
         height="682.0647"
         x="-2601.7856"
         y="904.23718"
         ry="0" />
    </g>
    <g
       transform="matrix(0.81315707,0,0,0.81315707,2626.9692,138.91981)"
       id="g4557">
      <rect
         style="fill:#fff6d5;fill-opacity:1;fill-rule:evenodd;stroke:none;stroke-width:20.39699936;stroke-miterlimit:4;stroke-dasharray:none;stroke-opacity:1"
         id="rect4559"
         width="682.0647"
         height="682.0647"
         x="-2601.7856"
         y="904.23718"
         ry="0" />
      <g
         id="g4561"
         transform="translate(631.25,-653.125)">
        <rect
           y="1557.3622"
           x="-2897.332"
           height="682.0647"
           width="31.971781"
           id="rect4563"
           style="fill:#a05a2c;fill-opacity:1;fill-rule:evenodd;stroke:none;stroke-width:3.29699993;stroke-miterlimit:4;stroke-dasharray:none;stroke-opacity:1" />
        <rect
           transform="matrix(0,1,-1,0,0,0)"
           style="fill:#a05a2c;fill-opacity:1;fill-rule:evenodd;stroke:none;stroke-width:3.29699993;stroke-miterlimit:4;stroke-dasharray:none;stroke-opacity:1"
           id="rect4565"
           width="31.971781"
           height="682.0647"
           x="1882.4087"
           y="2550.5713" />
      </g>
      <rect
         ry="0"
         y="904.23718"
         x="-2601.7856"
         height="682.0647"
         width="682.0647"
         id="rect4567"
         style="fill:none;fill-opacity:1;fill-rule:evenodd;stroke:#784421;stroke-width:20.39699936;stroke-miterlimit:4;stroke-dasharray:none;stroke-opacity:1" />
    </g>
  </g>
</svg>
