<?xml version="1.0" encoding="UTF-8" standalone="no"?>
<!-- Created with Inkscape (http://www.inkscape.org/) -->

<svg
   xmlns:dc="http://purl.org/dc/elements/1.1/"
   xmlns:cc="http://creativecommons.org/ns#"
   xmlns:rdf="http://www.w3.org/1999/02/22-rdf-syntax-ns#"
   xmlns:svg="http://www.w3.org/2000/svg"
   xmlns="http://www.w3.org/2000/svg"
   xmlns:sodipodi="http://sodipodi.sourceforge.net/DTD/sodipodi-0.dtd"
   xmlns:inkscape="http://www.inkscape.org/namespaces/inkscape"
   width="210mm"
   height="297mm"
   viewBox="0 0 210 297"
   version="1.1"
   id="svg8"
   sodipodi:docname="main_character_walk_3.svg"
   inkscape:version="0.91 r13725">
  <defs
     id="defs2" />
  <sodipodi:namedview
     id="base"
     pagecolor="#ffffff"
     bordercolor="#666666"
     borderopacity="1.0"
     inkscape:pageopacity="0.0"
     inkscape:pageshadow="2"
     inkscape:zoom="0.9899495"
     inkscape:cx="385.80366"
     inkscape:cy="411.14668"
     inkscape:document-units="mm"
     inkscape:current-layer="layer1"
     showgrid="false"
     inkscape:window-width="1920"
     inkscape:window-height="1017"
     inkscape:window-x="1912"
     inkscape:window-y="-8"
     inkscape:window-maximized="1" />
  <metadata
     id="metadata5">
    <rdf:RDF>
      <cc:Work
         rdf:about="">
        <dc:format>image/svg+xml</dc:format>
        <dc:type
           rdf:resource="http://purl.org/dc/dcmitype/StillImage" />
        <dc:title />
      </cc:Work>
    </rdf:RDF>
  </metadata>
  <g
     inkscape:label="Layer 1"
     inkscape:groupmode="layer"
     id="layer1">
    <g
       id="g3355"
       transform="matrix(0.12286717,0,0,0.12286717,-0.03955451,260.47449)"
       inkscape:export-filename="D:\Documents\GitHub\LIT230-Final-Project\Assets\Character\exports\mc_3.png"
       inkscape:export-xdpi="89.999992"
       inkscape:export-ydpi="89.999992">
      <g
         transform="matrix(1,0,0,0.97692872,0,3.4915018)"
         id="g3805">
        <path
           style="fill:#3e1800;fill-opacity:1;stroke:#6a3a11;stroke-width:3.49532461;stroke-miterlimit:4;stroke-dasharray:none;stroke-opacity:1"
           d="m 86.318736,280.42038 c 9.819932,8.83471 -12.714449,0.51836 -22.397944,-0.2289 -8.406964,-0.64875 -23.636968,-1.44118 -23.443996,-8.58368 0,0 10.770236,-16.10578 6.673543,-36.59997 -2.433453,-12.17364 -6.077219,-28.9623 9.797677,-39.21013 12.252506,-7.90943 36.683298,-1.00775 44.430394,7.96276 3.18827,3.6918 1.52541,25.7428 3.37944,34.15766 1.51657,6.88319 1.97336,8.443 -2.61693,14.08749 -7.310102,10.653 -14.149033,12.47105 -15.822223,28.41476 z"
           id="path10-4-3-1-1"
           inkscape:connector-curvature="0"
           sodipodi:nodetypes="cscssssccc" />
        <path
           style="fill:#000000;fill-opacity:1;stroke:#3e3f40;stroke-width:3.53023887;stroke-linejoin:round;stroke-miterlimit:4;stroke-dasharray:none;stroke-opacity:1"
           d="m 40.476796,271.6078 c 18.280713,1.92431 31.060765,3.17186 46.200839,4.70977 l 12.650436,6.31895 3.690709,6.668 -2.53928,9.65342 -15.018038,-3.03067 -12.08447,-2.17748 -13.753007,-3.25385 -5.789426,1.26474 -18.529563,-3.38434 z"
           id="rect882-7-0"
           inkscape:connector-curvature="0"
           sodipodi:nodetypes="ccccccccccc" />
      </g>
      <g
         transform="translate(0,-0.80180858)"
         id="g3862">
        <path
           style="fill:#a05a2c;fill-opacity:1;stroke:#784421;stroke-width:3.4892776;stroke-miterlimit:4;stroke-dasharray:none;stroke-opacity:1"
           d="m 56.088002,155.11506 c 0,6.77866 -1.274178,12.61859 -0.003,19.01504 2.310922,11.63184 -8.135983,3.28374 -22.969256,3.28374 -14.763793,0 -13.041832,6.12059 -20.317479,-1.15001 C 7.629222,171.09828 6.1231763,157.66604 5.7459411,150.48259 5.1175284,138.51615 1.0812013,131.57952 2.2985239,119.90203 3.8611508,104.91213 2.019656,103.27421 37.099921,98.14567 c 11.943668,-1.746099 6.642481,10.18988 14.911948,15.68152 3.403257,2.26007 5.030764,15.86562 5.186251,19.62211 0.247164,5.97093 -1.109677,16.46325 -1.109677,21.66576 z"
           id="path10-4-33"
           inkscape:connector-curvature="0"
           sodipodi:nodetypes="csssssssssc" />
        <path
           style="fill:#934d1b;fill-opacity:1;stroke:#78442e;stroke-width:3.4892776;stroke-miterlimit:4;stroke-dasharray:none;stroke-opacity:1"
           d="m 38.293733,156.27129 c 0.287274,3.22484 0.03748,6.04047 0.804691,9.04617 1.394857,5.46588 -1.993707,4.02078 -7.782829,4.45589 -5.762003,0.43309 -5.873005,1.07442 -9.020663,-2.17101 -2.236331,-2.30579 -3.39336,-8.65177 -3.845018,-12.05812 -0.752384,-5.67438 -2.62165,-8.85598 -2.641438,-14.44704 -0.0254,-7.17702 -0.813509,-7.90223 12.660248,-11.37109 4.587369,-1.18105 4.295644,-0.0392 7.755775,2.33073 1.424004,0.97536 1.3644,12.09228 1.584281,13.87481 0.349503,2.83332 0.264619,7.86464 0.485097,10.33965 z"
           id="path10-4-33-2"
           inkscape:connector-curvature="0"
           sodipodi:nodetypes="csssssssssc" />
      </g>
      <path
         sodipodi:nodetypes="ssssssssss"
         inkscape:connector-curvature="0"
         id="path10-4"
         d="m 100.05995,154.80396 c 0,8.64991 -2.529531,20.66543 -0.977198,28.82759 2.821988,14.84282 0.768199,6.06934 -17.345542,6.06934 -18.028892,0 -23.847712,13.13257 -32.732412,3.85491 -6.312274,-6.59146 -0.229789,-29.05407 -0.690452,-38.22051 -0.767389,-15.26973 -5.696375,-24.12124 -4.209833,-39.02227 1.90821,-19.127833 -0.340543,-21.217886 42.497934,-27.762151 14.585083,-2.228107 10.897302,8.25043 12.695905,20.010381 1.008548,6.59425 0.629412,18.90306 0.819288,23.69654 0.30183,7.6192 -0.0577,22.54617 -0.0577,22.54617 z"
         style="fill:#00abff;fill-opacity:1;stroke:#008aff;stroke-width:3.31209159;stroke-miterlimit:4;stroke-dasharray:none;stroke-opacity:1" />
      <g
         transform="matrix(1,0,0,0.97692872,0,2.708192)"
         id="g3830">
        <path
           style="fill:#ededed;fill-opacity:1;stroke:#acacac;stroke-width:3.90926695;stroke-linejoin:round;stroke-miterlimit:4;stroke-dasharray:none;stroke-opacity:1"
           d="m 125.59927,48.047747 c 0.0531,8.484682 -8.2519,34.201032 -11.72663,40.670479 -10.43859,19.435184 -10.98553,8.899008 -20.311781,8.899009 -7.89667,1e-6 1.722003,-4.328933 8.383821,-23.798929 4.14292,-12.108295 -2.205996,-38.600784 -1.24557,-54.857897 0.44565,-7.5435 4.75148,-10.4722425 17.22047,-15.6587122 17.96083,-5.5700131 24.741,19.8449072 21.64385,25.9262752 -5.58768,10.971607 -7.67539,7.538639 -13.96416,18.819775 z"
           id="path13"
           inkscape:connector-curvature="0"
           sodipodi:nodetypes="csssscsc" />
        <path
           style="fill:#00abff;fill-opacity:1;stroke:#008aff;stroke-width:3.33794665;stroke-miterlimit:4;stroke-dasharray:none;stroke-opacity:1"
           d="m 115.22578,48.630827 c 0,9.826875 -7.55411,34.000797 -11.89273,42.20403 -6.176352,11.677963 -11.492211,5.675278 -27.686382,5.675278 -16.118323,0 -19.580646,12.479745 -27.52381,1.939711 C 42.479516,90.961501 47.261465,80.828564 41.416072,72.411934 27.929621,52.993129 7.5122426,23.490501 75.646668,10.263963 88.686126,7.7326865 113.63606,5.5180891 122.66423,13.479185 c 3.71548,3.276346 2.59254,5.311879 2.76229,10.757585 0.26984,8.655901 -10.20074,16.852126 -10.20074,24.394057 z"
           id="path10"
           inkscape:connector-curvature="0"
           sodipodi:nodetypes="sssssssss" />
      </g>
      <g
         transform="matrix(0.99782914,0.0643366,-0.06585598,0.97480794,13.58314,-1.0290986)"
         inkscape:transform-center-y="30.702789"
         inkscape:transform-center-x="-4.788555"
         id="g3809">
        <path
           style="fill:#552200;fill-opacity:1;stroke:#784421;stroke-width:3.49532461;stroke-miterlimit:4;stroke-dasharray:none;stroke-opacity:1"
           d="m 103.87287,275.27054 c 11.77112,5.99366 -12.14756,3.78983 -21.694747,5.57304 -8.288614,1.54814 -26.939481,6.27599 -28.600778,-0.67331 0,0 2.217631,-20.63386 -2.394652,-38.35518 -3.326932,-12.78275 -10.255374,-26.68308 2.42813,-40.68876 9.789335,-10.8098 32.843379,-8.31716 42.647355,-1.6561 4.034772,2.74136 3.287008,28.27688 3.899122,34.04045 0.97299,9.1611 0.42774,3.78395 1.165,11.36672 -0.0412,15.18975 0.0423,14.55932 2.55052,30.39314 z"
           id="path10-4-3-1"
           inkscape:connector-curvature="0"
           sodipodi:nodetypes="cscsssscc" />
        <path
           style="fill:#000000;fill-opacity:1;stroke:#565757;stroke-width:3.53023887;stroke-linejoin:round;stroke-miterlimit:4;stroke-dasharray:none;stroke-opacity:1"
           d="m 54.409099,276.97931 46.361431,-2.70509 13.49504,4.22454 4.70514,5.99543 -0.97015,9.93454 -15.30899,-0.60127 -12.276996,-0.22596 -14.095618,-1.023 -5.514256,2.17026 -18.832027,-0.39143 z"
           id="rect882-7"
           inkscape:connector-curvature="0"
           sodipodi:nodetypes="ccccccccccc" />
      </g>
      <path
         sodipodi:nodetypes="cccccccc"
         inkscape:connector-curvature="0"
         id="rect882"
         d="m 47.749585,192.39421 35.353988,-2.97931 19.055467,1.71311 -0.0811,10.27862 -8.780372,-1.34188 -20.897508,0.52256 -24.245049,3.27723 z"
         style="fill:#000000;fill-opacity:1;stroke:#565757;stroke-width:3.4892776;stroke-linejoin:round;stroke-miterlimit:4;stroke-dasharray:none;stroke-opacity:1" />
      <path
         inkscape:transform-center-y="14.397495"
         inkscape:transform-center-x="-24.735831"
         sodipodi:nodetypes="csscsssssc"
         inkscape:connector-curvature="0"
         id="path10-4-3"
         d="m 82.289237,193.95611 c -0.817594,7.97209 -3.552114,10.63224 -9.02109,11.84745 -4.879684,1.08423 -20.036674,0.48655 -20.675493,-5.28266 -0.90237,-8.14936 -3.624677,-19.69069 -4.702961,-26.82878 -2.488528,-12.29609 -7.445855,-22.66441 2.052505,-42.71171 9.425681,-19.89388 12.791089,-24.04005 19.413054,-24.79811 13.907822,-1.59218 19.797433,6.31125 26.107206,17.60151 2.596756,4.64648 -15.198765,25.00925 -16.883672,30.27475 -2.678137,8.36941 -3.675719,11.57723 -1.711589,19.10817 z"
         style="fill:#00abff;fill-opacity:1;stroke:#008aff;stroke-width:3.4892776;stroke-miterlimit:4;stroke-dasharray:none;stroke-opacity:1" />
      <g
         inkscape:transform-center-y="21.821004"
         inkscape:transform-center-x="-9.0680347"
         transform="matrix(0.99444065,-0.10286923,0.1052986,0.97149763,-16.184245,11.157859)"
         id="g3820">
        <g
           id="g3826">
          <path
             sodipodi:nodetypes="cccccccc"
             inkscape:connector-curvature="0"
             id="rect887-9-6"
             d="m 109.79675,230.82052 -2.14655,8.83207 c -5.74535,6.33371 -10.079525,11.8456 -17.258263,22.6471 -2.946986,2.14144 -5.477257,3.13943 -7.476049,2.67912 l 4.224842,-7.10817 c 2.622089,-5.04506 3.913544,-9.00002 9.547244,-14.99346 1.320466,-4.74815 1.364722,-8.4903 1.89596,-11.92935 3.034816,3.79358 6.385616,1.62258 11.212816,-0.12731 z"
             style="fill:#4d6090;fill-opacity:1;stroke:#808080;stroke-width:3.53023887;stroke-linejoin:round;stroke-miterlimit:4;stroke-dasharray:none;stroke-opacity:1" />
          <path
             sodipodi:nodetypes="cccccccc"
             inkscape:connector-curvature="0"
             id="rect887-9-4"
             d="m 111.32691,212.07895 1.17692,3.11154 0.0536,3.18109 -2.46529,0.39647 -6.57802,-0.5934 2.03339,-1.65983 0.85638,-2.40247 c -0.5445,-6.67907 -1.71248,-11.51657 4.92297,-2.03338 z"
             style="fill:#4d6090;fill-opacity:1;stroke:#808080;stroke-width:3.53023887;stroke-linejoin:round;stroke-miterlimit:4;stroke-dasharray:none;stroke-opacity:1" />
          <path
             sodipodi:nodetypes="cssssssssscc"
             inkscape:connector-curvature="0"
             id="path10-8"
             d="m 86.99425,219.09395 c -7.068107,-4.66413 -35.624956,-9.98536 -40.276825,-10.83525 -13.361581,-2.44117 -10.036575,2.19231 -13.557123,4.87982 -3.513164,2.68188 -1.171223,-5.93275 0.195542,-7.32099 2.368467,-2.40566 0.749414,-14.52319 6.883295,-3.83858 0,0 3.978763,2.42736 14.227037,3.27789 6.405844,0.53166 23.746025,4.42542 35.601421,9.27213 7.852388,3.21018 11.239583,4.88734 14.831773,1.80154 4.73057,-4.06372 7.90799,-0.61475 7.24317,6.33498 0,0 0.11359,4.19201 -7.06014,13.48207 -2.56036,3.3157 -5.788743,1.8944 -6.845345,-8.20886 -0.928876,-5.72566 -11.242805,-8.84475 -11.242805,-8.84475 z"
             style="fill:#aa0000;fill-opacity:1;stroke:#550000;stroke-width:3.53023887;stroke-miterlimit:4;stroke-dasharray:none;stroke-opacity:1" />
          <path
             sodipodi:nodetypes="cccccccc"
             inkscape:connector-curvature="0"
             id="rect887-9"
             d="m 71.777463,201.01527 2.863978,7.11556 -3.546694,8.91697 -6.602465,1.50542 -10.156111,-2.94718 -2.805593,-7.60499 2.905691,-7.78108 z"
             style="fill:#4d6090;fill-opacity:1;stroke:#808080;stroke-width:3.53023887;stroke-linejoin:round;stroke-miterlimit:4;stroke-dasharray:none;stroke-opacity:1" />
        </g>
      </g>
      <path
         sodipodi:nodetypes="ccccc"
         inkscape:connector-curvature="0"
         id="rect887"
         d="m 90.15666,188.93619 11.63635,0 0,13.02802 -11.736667,-1.04225 z"
         style="fill:#000000;fill-opacity:1;stroke:#e3e400;stroke-width:4.19087887;stroke-linejoin:round;stroke-miterlimit:4;stroke-dasharray:none;stroke-opacity:1" />
    </g>
  </g>
</svg>
