<?xml version="1.0" encoding="UTF-8" standalone="no"?>
<!-- Created with Inkscape (http://www.inkscape.org/) -->

<svg
   xmlns:dc="http://purl.org/dc/elements/1.1/"
   xmlns:cc="http://creativecommons.org/ns#"
   xmlns:rdf="http://www.w3.org/1999/02/22-rdf-syntax-ns#"
   xmlns:svg="http://www.w3.org/2000/svg"
   xmlns="http://www.w3.org/2000/svg"
   xmlns:sodipodi="http://sodipodi.sourceforge.net/DTD/sodipodi-0.dtd"
   xmlns:inkscape="http://www.inkscape.org/namespaces/inkscape"
   width="210mm"
   height="297mm"
   viewBox="0 0 210 297"
   version="1.1"
   id="svg8"
   sodipodi:docname="main_character_walk_1.svg"
   inkscape:version="0.91 r13725"
   inkscape:export-filename="D:\Documents\GitHub\LIT230-Final-Project\Assets\Character\exports\mc_1.png"
   inkscape:export-xdpi="90.000008"
   inkscape:export-ydpi="90.000008">
  <defs
     id="defs2" />
  <sodipodi:namedview
     id="base"
     pagecolor="#ffffff"
     bordercolor="#666666"
     borderopacity="1.0"
     inkscape:pageopacity="0.0"
     inkscape:pageshadow="2"
     inkscape:zoom="7.9195959"
     inkscape:cx="17.777038"
     inkscape:cy="59.74444"
     inkscape:document-units="mm"
     inkscape:current-layer="layer1"
     showgrid="false"
     inkscape:window-width="1920"
     inkscape:window-height="1017"
     inkscape:window-x="1912"
     inkscape:window-y="-8"
     inkscape:window-maximized="1" />
  <metadata
     id="metadata5">
    <rdf:RDF>
      <cc:Work
         rdf:about="">
        <dc:format>image/svg+xml</dc:format>
        <dc:type
           rdf:resource="http://purl.org/dc/dcmitype/StillImage" />
        <dc:title />
      </cc:Work>
    </rdf:RDF>
  </metadata>
  <g
     inkscape:label="Layer 1"
     inkscape:groupmode="layer"
     id="layer1">
    <g
       id="g3350"
       transform="matrix(0.12399589,0,0,0.12399589,-0.03982556,260.32086)">
      <path
         sodipodi:nodetypes="cscsssscc"
         inkscape:connector-curvature="0"
         id="path10-4-3-1-1"
         d="m 82.548029,278.64186 c 9.373256,9.10036 -12.724553,-0.10557 -22.35954,-1.3013 -8.364851,-1.03809 -27.567896,-2.21568 -27.023658,-9.18165 0,0 8.42351,-18.54461 9.453551,-36.42087 0.742991,-12.89451 -1.600981,-27.90664 14.759,-37.15063 12.626902,-7.13465 33.813173,2.08151 41.109425,11.21475 3.002723,3.75876 -5.520881,27.30595 -6.701271,32.85432 -1.876159,8.81905 -0.750337,3.6504 -2.368097,10.92968 -4.685981,14.12773 -4.413657,13.56582 -6.869448,29.05569 z"
         style="fill:#3e1800;fill-opacity:1;stroke:#6a3a11;stroke-width:3.45625401;stroke-miterlimit:4;stroke-dasharray:none;stroke-opacity:1" />
      <path
         sodipodi:nodetypes="ccccccccccc"
         inkscape:connector-curvature="0"
         id="rect882-7-0"
         d="m 31.470497,271.68338 46.421547,1.28958 13.078621,5.25748 4.168401,6.23845 -1.826608,9.59509 -15.199446,-1.88164 -12.211341,-1.25938 -13.954117,-2.18973 -5.681449,1.64724 -18.727426,-1.97546 z"
         style="fill:#000000;fill-opacity:1;stroke:#3e3f40;stroke-width:3.49077797;stroke-linejoin:round;stroke-miterlimit:4;stroke-dasharray:none;stroke-opacity:1" />
      <path
         sodipodi:nodetypes="csssssssssc"
         inkscape:connector-curvature="0"
         id="path10-4-33"
         d="m 56.088002,155.69352 c 0,6.7845 -1.274178,12.62943 -0.003,19.03139 2.310922,11.64185 -8.135983,3.28657 -22.969256,3.28657 -14.763793,0 -13.041832,6.12585 -20.317479,-1.15101 C 7.629222,171.69048 6.1231763,158.2467 5.7459411,151.05707 5.1175284,139.08033 1.0812013,132.13773 2.2985239,120.4502 3.8611508,105.44741 2.019656,103.80808 37.099921,98.675129 c 11.943668,-1.747601 6.642481,10.198641 14.911948,15.695011 3.403257,2.26201 5.030764,15.87925 5.186251,19.63899 0.247164,5.97606 -1.109677,16.47741 -1.109677,21.68439 z"
         style="fill:#a05a2c;fill-opacity:1;stroke:#784421;stroke-width:3.49077797;stroke-miterlimit:4;stroke-dasharray:none;stroke-opacity:1" />
      <path
         sodipodi:nodetypes="ssssssssss"
         inkscape:connector-curvature="0"
         id="path10-4"
         d="m 100.05995,155.38214 c 0,8.65736 -2.529531,20.68322 -0.977198,28.8524 2.821988,14.85559 0.768199,6.07456 -17.345542,6.07456 -18.028892,0 -23.847712,13.14386 -32.732412,3.85823 -6.312274,-6.59714 -0.229789,-29.07906 -0.690452,-38.25339 -0.767389,-15.28287 -5.696375,-24.14199 -4.209833,-39.05583 1.90821,-19.14429 -0.340543,-21.23614 42.497934,-27.786033 14.585083,-2.230024 10.897302,8.257525 12.695905,20.027583 1.008548,6.59993 0.629412,18.91933 0.819288,23.71693 0.30183,7.62575 -0.0577,22.56555 -0.0577,22.56555 z"
         style="fill:#00abff;fill-opacity:1;stroke:#008aff;stroke-width:3.3135159;stroke-miterlimit:4;stroke-dasharray:none;stroke-opacity:1" />
      <path
         sodipodi:nodetypes="csssscsc"
         inkscape:connector-curvature="0"
         id="path13"
         d="m 125.59927,50.919146 c 0.0531,8.29606 -8.2519,33.440708 -11.72663,39.766332 -10.43859,19.003122 -10.98553,8.701174 -20.311781,8.701175 -7.89667,10e-7 1.722003,-4.232695 8.383821,-23.269854 4.14292,-11.839114 -2.205996,-37.742648 -1.24557,-53.638349 0.44565,-7.3758 4.75148,-10.239434 17.22047,-15.3106027 17.96083,-5.446186 24.741,19.4037347 21.64385,25.3499077 -5.58768,10.727697 -7.67539,7.371047 -13.96416,18.401391 z"
         style="fill:#ededed;fill-opacity:1;stroke:#acacac;stroke-width:3.86556935;stroke-linejoin:round;stroke-miterlimit:4;stroke-dasharray:none;stroke-opacity:1" />
      <path
         sodipodi:nodetypes="sssssssss"
         inkscape:connector-curvature="0"
         id="path10"
         d="m 115.22578,51.489264 c 0,9.608414 -7.55411,33.244924 -11.89273,41.265791 -6.176352,11.418355 -11.492211,5.549111 -27.686382,5.549111 -16.118323,0 -19.580646,12.202304 -27.52381,1.896594 C 42.479516,92.878884 47.261465,82.971213 41.416072,74.741693 27.929621,55.754588 7.5122426,26.907834 75.646668,13.975336 88.686126,11.500332 113.63606,9.3349669 122.66423,17.11908 c 3.71548,3.203509 2.59254,5.19379 2.76229,10.518432 0.26984,8.463471 -10.20074,16.477486 -10.20074,23.851752 z"
         style="fill:#00abff;fill-opacity:1;stroke:#008aff;stroke-width:3.3006351;stroke-miterlimit:4;stroke-dasharray:none;stroke-opacity:1" />
      <path
         sodipodi:nodetypes="csssssssssc"
         inkscape:connector-curvature="0"
         id="path10-4-33-2"
         d="m 38.293733,156.85075 c 0.287274,3.2276 0.03748,6.04566 0.804691,9.05394 1.394857,5.47058 -1.993707,4.02423 -7.782829,4.45973 -5.762003,0.43346 -5.873005,1.07535 -9.020663,-2.17288 -2.236331,-2.30777 -3.39336,-8.65922 -3.845018,-12.0685 -0.752384,-5.67925 -2.62165,-8.86359 -2.641438,-14.45946 -0.0254,-7.1832 -0.813509,-7.90903 12.660248,-11.38086 4.587369,-1.18208 4.295644,-0.0393 7.755775,2.33272 1.424004,0.97621 1.3644,12.10268 1.584281,13.88675 0.349503,2.83576 0.264619,7.87141 0.485097,10.34855 z"
         style="fill:#934d1b;fill-opacity:1;stroke:#78442e;stroke-width:3.49077797;stroke-miterlimit:4;stroke-dasharray:none;stroke-opacity:1" />
      <path
         sodipodi:nodetypes="cscsssscc"
         inkscape:connector-curvature="0"
         id="path10-4-3-1"
         d="m 113.12062,268.75956 c 12.43772,4.3493 -11.56703,5.18584 -20.809963,8.10227 -8.024468,2.53199 -25.92274,9.43613 -28.454221,2.90303 0,0 -0.424171,-20.2871 -7.252452,-36.90033 -4.925377,-11.98347 -13.565139,-24.60302 -2.765557,-39.76315 8.335295,-11.70082 31.519156,-12.14976 42.090564,-6.90861 4.350609,2.157 6.856009,27.01513 8.196049,32.52872 2.13002,8.76375 0.90543,3.61661 2.60093,10.87896 1.89067,14.73662 1.89329,14.11483 6.39461,29.15912 z"
         style="fill:#552200;fill-opacity:1;stroke:#784421;stroke-width:3.45625401;stroke-miterlimit:4;stroke-dasharray:none;stroke-opacity:1" />
      <path
         sodipodi:nodetypes="cccccccc"
         inkscape:connector-curvature="0"
         id="rect882"
         d="m 47.749585,193.00473 35.353988,-2.98187 19.055467,1.71458 -0.0811,10.28745 -8.780372,-1.34302 -20.897508,0.523 -24.245049,3.28005 z"
         style="fill:#000000;fill-opacity:1;stroke:#565757;stroke-width:3.49077797;stroke-linejoin:round;stroke-miterlimit:4;stroke-dasharray:none;stroke-opacity:1" />
      <path
         sodipodi:nodetypes="ccccccccccc"
         inkscape:connector-curvature="0"
         id="rect882-7"
         d="m 64.616217,274.73259 46.070203,-5.7211 13.75105,3.22385 5.10191,5.53578 -0.29241,9.7557 -15.31443,0.43124 -12.26395,0.5958 -14.132555,-0.0608 -5.353929,2.4837 -18.815057,0.87019 z"
         style="fill:#000000;fill-opacity:1;stroke:#565757;stroke-width:3.49077797;stroke-linejoin:round;stroke-miterlimit:4;stroke-dasharray:none;stroke-opacity:1" />
      <g
         transform="matrix(0.24377667,0.94827105,-0.9698314,0.23835726,177.59811,25.532715)"
         inkscape:transform-center-y="58.560311"
         inkscape:transform-center-x="15.122889"
         id="g1038">
        <path
           style="fill:#4d6090;fill-opacity:1;stroke:#808080;stroke-width:3.53023887;stroke-linejoin:round;stroke-miterlimit:4;stroke-dasharray:none;stroke-opacity:1"
           d="m 185.97694,132.26338 7.37204,5.3166 c 3.70169,7.70859 7.17393,13.80035 14.47387,24.52031 0.87302,3.53671 0.84393,6.25653 -0.33568,7.9345 l -4.99204,-6.59203 c -3.68501,-4.32997 -6.86173,-7.01661 -10.29031,-14.49356 -3.9005,-3.01242 -7.35009,-4.46361 -10.33541,-6.25166 4.65755,-1.3815 3.90932,-5.3034 4.10753,-10.43416 z"
           id="rect887-9-6"
           inkscape:connector-curvature="0"
           sodipodi:nodetypes="cccccccc" />
        <path
           style="fill:#4d6090;fill-opacity:1;stroke:#808080;stroke-width:3.53023887;stroke-linejoin:round;stroke-miterlimit:4;stroke-dasharray:none;stroke-opacity:1"
           d="m 169.19367,123.78343 3.32566,0.0824 2.96678,1.14911 -0.56179,2.43295 -3.02852,5.86945 -0.7712,-2.50898 -1.90263,-1.69859 c -6.39187,-2.0126 -11.31288,-2.75369 -0.0283,-5.3263 z"
           id="rect887-9-4"
           inkscape:connector-curvature="0"
           sodipodi:nodetypes="cccccccc" />
        <path
           style="fill:#aa0000;fill-opacity:1;stroke:#550000;stroke-width:3.53023887;stroke-miterlimit:4;stroke-dasharray:none;stroke-opacity:1"
           d="m 166.52195,148.96577 c -6.98384,4.78939 -22.67419,29.2357 -25.21444,33.22435 -7.2964,11.4566 -1.75151,10.12281 -0.58882,14.39658 1.16026,4.26481 -5.93674,-1.15083 -6.70758,-2.93998 -1.33577,-3.10041 -13.1701,-6.16711 -0.96168,-7.82238 0,0 3.74777,-2.77071 8.39758,-11.94294 2.90645,-5.73324 13.04766,-20.32773 22.00466,-29.48268 5.93263,-6.06376 8.76258,-8.56922 7.25796,-13.05944 -1.98146,-5.91321 2.41063,-7.55666 8.59748,-4.32191 0,0 3.92577,1.47451 9.82758,11.62026 2.10641,3.6211 -0.4267,6.07587 -10.18329,3.24725 -5.65359,-1.29727 -12.42945,7.08089 -12.42945,7.08089 z"
           id="path10-8"
           inkscape:connector-curvature="0"
           sodipodi:nodetypes="cssssssssscc" />
        <path
           style="fill:#00abff;fill-opacity:1;stroke:#008aff;stroke-width:3.53023887;stroke-miterlimit:4;stroke-dasharray:none;stroke-opacity:1"
           d="m 141.39981,149.16272 c 7.25065,3.83248 5.63091,9.01109 4.72216,14.54563 -0.81084,4.93818 -3.11508,8.51644 -8.69184,10.56148 -8.71964,3.19757 -21.56955,-0.82249 -27.64023,-4.58075 -12.596353,-2.43804 -27.167214,-7.19794 -39.293575,-19.78882 -15.566084,-16.16234 -17.973431,-21.12134 -16.19677,-27.54754 3.731429,-13.49667 13.444529,-15.90341 26.527215,-17.39289 5.384135,-0.61298 19.46008,21.87286 23.81763,25.46467 6.92626,5.70913 8.56612,7.96998 15.99745,10.80873 z"
           id="path10-4-3"
           inkscape:connector-curvature="0"
           sodipodi:nodetypes="csscsssssc"
           inkscape:transform-center-x="-24.735831"
           inkscape:transform-center-y="14.737504" />
        <path
           style="fill:#4d6090;fill-opacity:1;stroke:#808080;stroke-width:3.53023887;stroke-linejoin:round;stroke-miterlimit:4;stroke-dasharray:none;stroke-opacity:1"
           d="m 144.04175,156.24794 7.67025,0.0286 6.92305,6.64551 -1.09365,6.68302 -6.55715,8.29676 -8.1016,-0.26712 -6.11245,-5.62371 z"
           id="rect887-9"
           inkscape:connector-curvature="0"
           sodipodi:nodetypes="cccccccc" />
      </g>
      <path
         sodipodi:nodetypes="ccccc"
         inkscape:connector-curvature="0"
         id="rect887"
         d="m 90.15666,189.54373 11.63635,0 0,13.03923 -11.736667,-1.04315 z"
         style="fill:#000000;fill-opacity:1;stroke:#e3e400;stroke-width:4.19268084;stroke-linejoin:round;stroke-miterlimit:4;stroke-dasharray:none;stroke-opacity:1" />
    </g>
  </g>
</svg>
