<?xml version="1.0" encoding="UTF-8" standalone="no"?>
<!-- Created with Inkscape (http://www.inkscape.org/) -->

<svg
   xmlns:osb="http://www.openswatchbook.org/uri/2009/osb"
   xmlns:dc="http://purl.org/dc/elements/1.1/"
   xmlns:cc="http://creativecommons.org/ns#"
   xmlns:rdf="http://www.w3.org/1999/02/22-rdf-syntax-ns#"
   xmlns:svg="http://www.w3.org/2000/svg"
   xmlns="http://www.w3.org/2000/svg"
   xmlns:sodipodi="http://sodipodi.sourceforge.net/DTD/sodipodi-0.dtd"
   xmlns:inkscape="http://www.inkscape.org/namespaces/inkscape"
   width="210mm"
   height="297mm"
   viewBox="0 0 210 297"
   version="1.1"
   id="svg8"
   sodipodi:docname="main_character_walk_9.svg"
   inkscape:version="0.91 r13725">
  <defs
     id="defs2">
    <linearGradient
       id="linearGradient6513"
       osb:paint="solid">
      <stop
         style="stop-color:#565757;stop-opacity:1;"
         offset="0"
         id="stop6511" />
    </linearGradient>
    <linearGradient
       id="linearGradient6507"
       osb:paint="solid">
      <stop
         style="stop-color:#3e3f40;stop-opacity:1;"
         offset="0"
         id="stop6505" />
    </linearGradient>
    <linearGradient
       id="linearGradient6501"
       osb:paint="solid">
      <stop
         style="stop-color:#784421;stop-opacity:1;"
         offset="0"
         id="stop6499" />
    </linearGradient>
    <linearGradient
       id="linearGradient6495"
       osb:paint="solid">
      <stop
         style="stop-color:#552200;stop-opacity:1;"
         offset="0"
         id="stop6493" />
    </linearGradient>
    <linearGradient
       id="linearGradient6489"
       osb:paint="solid">
      <stop
         style="stop-color:#6a3a11;stop-opacity:1;"
         offset="0"
         id="stop6487" />
    </linearGradient>
    <linearGradient
       id="linearGradient6483"
       osb:paint="solid">
      <stop
         style="stop-color:#3e1800;stop-opacity:1;"
         offset="0"
         id="stop6481" />
    </linearGradient>
  </defs>
  <sodipodi:namedview
     id="base"
     pagecolor="#ffffff"
     bordercolor="#666666"
     borderopacity="1.0"
     inkscape:pageopacity="0.0"
     inkscape:pageshadow="2"
     inkscape:zoom="1.4"
     inkscape:cx="247.82763"
     inkscape:cy="231.65563"
     inkscape:document-units="mm"
     inkscape:current-layer="layer1"
     showgrid="false"
     inkscape:window-width="1920"
     inkscape:window-height="1017"
     inkscape:window-x="1912"
     inkscape:window-y="-8"
     inkscape:window-maximized="1" />
  <metadata
     id="metadata5">
    <rdf:RDF>
      <cc:Work
         rdf:about="">
        <dc:format>image/svg+xml</dc:format>
        <dc:type
           rdf:resource="http://purl.org/dc/dcmitype/StillImage" />
        <dc:title />
      </cc:Work>
    </rdf:RDF>
  </metadata>
  <g
     inkscape:label="Layer 1"
     inkscape:groupmode="layer"
     id="layer1">
    <g
       id="g3365"
       transform="matrix(0.12262061,0,0,0.12262061,-0.03819097,260.55293)"
       inkscape:export-filename="D:\Documents\GitHub\LIT230-Final-Project\Assets\Character\exports\mc_9.png"
       inkscape:export-xdpi="90"
       inkscape:export-ydpi="90">
      <path
         sodipodi:nodetypes="cscsssscc"
         inkscape:connector-curvature="0"
         id="path10-4-3-1"
         d="m 96.229944,277.67006 c 11.034426,7.1797 -12.492716,2.39318 -22.17871,3.09942 -8.409123,0.61313 -27.46904,3.21552 -28.35001,-3.79552 0,0 4.490538,-20.03375 1.87047,-37.95372 -1.889906,-12.92605 -7.235294,-27.34497 6.922147,-39.71846 10.926942,-9.55005 33.56277,-4.57444 42.56821,3.04556 3.706139,3.13602 0.133228,28.14763 0.102875,33.87852 -0.0482,9.10916 0.0058,3.76532 -0.101792,11.29763 -1.724216,14.92234 -1.571368,14.31197 -0.833239,30.14656 z"
         style="fill:url(#linearGradient6483);fill-opacity:1;stroke:url(#linearGradient6489);stroke-width:3.47566366;stroke-miterlimit:4;stroke-dasharray:none;stroke-opacity:1" />
      <path
         sodipodi:nodetypes="ccccccccccc"
         inkscape:connector-curvature="0"
         id="rect882-7"
         d="m 45.996403,276.31327 46.422422,-1.27342 13.359725,4.58275 4.51983,6.06751 -1.27313,9.7892 -15.283476,-1.05658 -12.264368,-0.59408 -14.057798,-1.43673 -5.577968,1.97839 -18.811286,-0.95556 z"
         style="fill:#000000;fill-opacity:1;stroke:url(#linearGradient6507);stroke-width:3.51038146;stroke-linejoin:round;stroke-miterlimit:4;stroke-dasharray:none;stroke-opacity:1" />
      <path
         sodipodi:nodetypes="cscssssccc"
         inkscape:connector-curvature="0"
         id="path10-4-3-1-1"
         d="m 98.044818,277.10503 c 11.216372,6.89857 -12.426787,2.70805 -22.091359,3.65878 -8.390536,0.8254 -23.523679,2.69338 -24.585546,-4.29312 0,0 7.780693,-17.54509 0.155437,-36.78574 -4.529435,-11.42902 -11.059314,-27.14091 2.773734,-39.86808 10.676576,-9.82302 35.938841,-7.3383 45.138262,0.0517 3.785974,3.04135 4.412984,23.3776 4.589174,31.91005 0.15708,7.60719 -0.48185,7.46655 -0.95779,14.35634 -0.79032,12.9343 -3.803899,15.83506 -5.021952,30.97008 z"
         style="fill:url(#linearGradient6495);fill-opacity:1;stroke:url(#linearGradient6501);stroke-width:3.47566366;stroke-miterlimit:4;stroke-dasharray:none;stroke-opacity:1" />
      <path
         sodipodi:nodetypes="ccccccccccc"
         inkscape:connector-curvature="0"
         id="rect882-7-0"
         d="m 51.367913,276.47069 c 18.335012,-1.29481 31.135894,-2.29516 46.311157,-3.42184 l 13.56213,3.959 4.80226,5.85153 -0.80803,9.83744 -15.316754,-0.34763 -12.279054,-0.0255 -14.110417,-0.78413 -5.478141,2.23451 -18.835906,-0.0834 z"
         style="fill:#000000;fill-opacity:1;stroke:url(#linearGradient6513);stroke-width:3.51038146;stroke-linejoin:round;stroke-miterlimit:4;stroke-dasharray:none;stroke-opacity:1" />
      <path
         sodipodi:nodetypes="csssssssssc"
         inkscape:connector-curvature="0"
         id="path10-4-33"
         d="m 56.088002,156.32431 c 0,6.86091 -1.274178,12.7717 -0.003,19.24575 2.310922,11.77297 -8.135983,3.3236 -22.969256,3.3236 -14.763793,0 -13.041832,6.19483 -20.317479,-1.16398 C 7.629222,172.50146 6.1231763,158.90626 5.7459411,151.63564 5.1175284,139.52401 1.0812013,132.50322 2.2985239,120.68404 3.8611508,105.51227 2.019656,103.85448 37.099921,98.663716 c 11.943668,-1.767285 6.642481,10.313514 14.911948,15.871774 3.403257,2.2875 5.030764,16.05812 5.186251,19.86019 0.247164,6.04338 -1.109677,16.663 -1.109677,21.92863 z"
         style="fill:#a05a2c;fill-opacity:1;stroke:#784421;stroke-width:3.51038146;stroke-miterlimit:4;stroke-dasharray:none;stroke-opacity:1" />
      <path
         sodipodi:nodetypes="ssssssssss"
         inkscape:connector-curvature="0"
         id="path10-4"
         d="m 100.05995,156.00945 c 0,8.75485 -2.529531,20.91616 -0.977198,29.17735 2.821988,15.0229 0.768199,6.14298 -17.345542,6.14298 -18.028892,0 -23.847712,13.29191 -32.732412,3.90167 -6.312274,-6.67143 -0.229789,-29.40658 -0.690452,-38.68423 -0.767389,-15.455 -5.696375,-24.4139 -4.209833,-39.49572 1.90821,-19.359921 -0.340543,-21.475332 42.497934,-28.098997 14.585083,-2.255141 10.897302,8.350531 12.695905,20.253157 1.008548,6.67427 0.629412,19.13242 0.819288,23.98405 0.30183,7.71166 -0.0577,22.81974 -0.0577,22.81974 z"
         style="fill:#00abff;fill-opacity:1;stroke:#008aff;stroke-width:3.33212376;stroke-miterlimit:4;stroke-dasharray:none;stroke-opacity:1" />
      <g
         transform="matrix(1,0,0,0.98878177,0,2.0682981)"
         id="g3830">
        <path
           style="fill:#ededed;fill-opacity:1;stroke:#acacac;stroke-width:3.90926695;stroke-linejoin:round;stroke-miterlimit:4;stroke-dasharray:none;stroke-opacity:1"
           d="m 125.59927,48.047747 c 0.0531,8.484682 -8.2519,34.201032 -11.72663,40.670479 -10.43859,19.435184 -10.98553,8.899008 -20.311781,8.899009 -7.89667,1e-6 1.722003,-4.328933 8.383821,-23.798929 4.14292,-12.108295 -2.205996,-38.600784 -1.24557,-54.857897 0.44565,-7.5435 4.75148,-10.4722425 17.22047,-15.6587122 17.96083,-5.5700131 24.741,19.8449072 21.64385,25.9262752 -5.58768,10.971607 -7.67539,7.538639 -13.96416,18.819775 z"
           id="path13"
           inkscape:connector-curvature="0"
           sodipodi:nodetypes="csssscsc" />
        <path
           style="fill:#00abff;fill-opacity:1;stroke:#008aff;stroke-width:3.33794665;stroke-miterlimit:4;stroke-dasharray:none;stroke-opacity:1"
           d="m 115.22578,48.630827 c 0,9.826875 -7.55411,34.000797 -11.89273,42.20403 -6.176352,11.677963 -11.492211,5.675278 -27.686382,5.675278 -16.118323,0 -19.580646,12.479745 -27.52381,1.939711 C 42.479516,90.961501 47.261465,80.828564 41.416072,72.411934 27.929621,52.993129 7.5122426,23.490501 75.646668,10.263963 88.686126,7.7326865 113.63606,5.5180891 122.66423,13.479185 c 3.71548,3.276346 2.59254,5.311879 2.76229,10.757585 0.26984,8.655901 -10.20074,16.852126 -10.20074,24.394057 z"
           id="path10"
           inkscape:connector-curvature="0"
           sodipodi:nodetypes="sssssssss" />
      </g>
      <path
         sodipodi:nodetypes="csssssssssc"
         inkscape:connector-curvature="0"
         id="path10-4-33-2"
         d="m 38.293733,157.49458 c 0.287274,3.26396 0.03748,6.11376 0.804691,9.15592 1.394857,5.5322 -1.993707,4.06956 -7.782829,4.50996 -5.762003,0.43834 -5.873005,1.08745 -9.020663,-2.19735 -2.236331,-2.33377 -3.39336,-8.75674 -3.845018,-12.20443 -0.752384,-5.74322 -2.62165,-8.96342 -2.641438,-14.62233 -0.0254,-7.2641 -0.813509,-7.99811 12.660248,-11.50906 4.587369,-1.19536 4.295644,-0.0397 7.755775,2.35901 1.424004,0.9872 1.3644,12.23899 1.584281,14.04316 0.349503,2.86769 0.264619,7.96006 0.485097,10.46511 z"
         style="fill:#934d1b;fill-opacity:1;stroke:#78442e;stroke-width:3.51038146;stroke-miterlimit:4;stroke-dasharray:none;stroke-opacity:1" />
      <path
         sodipodi:nodetypes="cccccccc"
         inkscape:connector-curvature="0"
         id="rect882"
         d="m 47.749585,194.05577 35.353988,-3.01545 19.055467,1.73389 -0.0811,10.40332 -8.780372,-1.35816 -20.897508,0.5289 -24.245049,3.31699 z"
         style="fill:#000000;fill-opacity:1;stroke:#565757;stroke-width:3.51038146;stroke-linejoin:round;stroke-miterlimit:4;stroke-dasharray:none;stroke-opacity:1" />
      <path
         sodipodi:nodetypes="ccccc"
         inkscape:connector-curvature="0"
         id="rect887"
         d="m 90.15666,190.55579 11.63635,0 0,13.18609 -11.736667,-1.0549 z"
         style="fill:#000000;fill-opacity:1;stroke:#e3e400;stroke-width:4.2162261;stroke-linejoin:round;stroke-miterlimit:4;stroke-dasharray:none;stroke-opacity:1" />
      <g
         transform="matrix(0.98142757,0.19183308,-0.19183308,0.98142757,25.007241,-12.327791)"
         inkscape:transform-center-y="58.062949"
         inkscape:transform-center-x="-8.9746122"
         id="g1484">
        <path
           style="fill:#00abff;fill-opacity:1;stroke:#008aff;stroke-width:3.51038146;stroke-miterlimit:4;stroke-dasharray:none;stroke-opacity:1"
           d="m 97.392575,192.31705 c 0.929211,8.057 -1.166588,11.26099 -6.248063,13.60829 -4.533942,2.09436 -19.476678,4.6772 -21.351706,-0.89577 -2.648589,-7.87216 -7.811175,-18.71847 -10.412455,-25.55347 -5.097733,-11.64185 -12.190342,-20.85979 -7.253471,-42.67911 4.899095,-21.65235 7.28932,-26.45839 13.59673,-28.59496 13.24717,-4.48738 20.716553,2.09712 29.330797,11.94382 3.545155,4.05237 -9.43227,27.92128 -9.937455,33.48261 -0.802991,8.83964 -1.082525,12.22163 2.469673,19.25972 z"
           id="path10-4-3"
           inkscape:connector-curvature="0"
           sodipodi:nodetypes="csscsssssc"
           inkscape:transform-center-x="0.1368492"
           inkscape:transform-center-y="33.312642" />
        <g
           id="g3820"
           transform="matrix(0.84943699,-0.52177031,0.52769006,0.83990781,-73.348666,67.2437)"
           inkscape:transform-center-x="-16.584659"
           inkscape:transform-center-y="12.786433">
          <g
             id="g3826">
            <path
               style="fill:#4d6090;fill-opacity:1;stroke:#808080;stroke-width:3.53023887;stroke-linejoin:round;stroke-miterlimit:4;stroke-dasharray:none;stroke-opacity:1"
               d="m 109.79675,230.82052 -2.14655,8.83207 c -5.74535,6.33371 -10.079525,11.8456 -17.258263,22.6471 -2.946986,2.14144 -5.477257,3.13943 -7.476049,2.67912 l 4.224842,-7.10817 c 2.622089,-5.04506 3.913544,-9.00002 9.547244,-14.99346 1.320466,-4.74815 1.364722,-8.4903 1.89596,-11.92935 3.034816,3.79358 6.385616,1.62258 11.212816,-0.12731 z"
               id="rect887-9-6"
               inkscape:connector-curvature="0"
               sodipodi:nodetypes="cccccccc" />
            <path
               style="fill:#4d6090;fill-opacity:1;stroke:#808080;stroke-width:3.53023887;stroke-linejoin:round;stroke-miterlimit:4;stroke-dasharray:none;stroke-opacity:1"
               d="m 111.32691,212.07895 1.17692,3.11154 0.0536,3.18109 -2.46529,0.39647 -6.57802,-0.5934 2.03339,-1.65983 0.85638,-2.40247 c -0.5445,-6.67907 -1.71248,-11.51657 4.92297,-2.03338 z"
               id="rect887-9-4"
               inkscape:connector-curvature="0"
               sodipodi:nodetypes="cccccccc" />
            <path
               style="fill:#aa0000;fill-opacity:1;stroke:#550000;stroke-width:3.53023887;stroke-miterlimit:4;stroke-dasharray:none;stroke-opacity:1"
               d="m 86.99425,219.09395 c -7.068107,-4.66413 -35.624956,-9.98536 -40.276825,-10.83525 -13.361581,-2.44117 -10.036575,2.19231 -13.557123,4.87982 -3.513164,2.68188 -1.171223,-5.93275 0.195542,-7.32099 2.368467,-2.40566 0.749414,-14.52319 6.883295,-3.83858 0,0 3.978763,2.42736 14.227037,3.27789 6.405844,0.53166 23.746025,4.42542 35.601421,9.27213 7.852388,3.21018 11.239583,4.88734 14.831773,1.80154 4.73057,-4.06372 7.90799,-0.61475 7.24317,6.33498 0,0 0.11359,4.19201 -7.06014,13.48207 -2.56036,3.3157 -5.788743,1.8944 -6.845345,-8.20886 -0.928876,-5.72566 -11.242805,-8.84475 -11.242805,-8.84475 z"
               id="path10-8"
               inkscape:connector-curvature="0"
               sodipodi:nodetypes="cssssssssscc" />
            <path
               style="fill:#4d6090;fill-opacity:1;stroke:#808080;stroke-width:3.53023887;stroke-linejoin:round;stroke-miterlimit:4;stroke-dasharray:none;stroke-opacity:1"
               d="m 71.777463,201.01527 2.863978,7.11556 -3.546694,8.91697 -6.602465,1.50542 -10.156111,-2.94718 -2.805593,-7.60499 2.905691,-7.78108 z"
               id="rect887-9"
               inkscape:connector-curvature="0"
               sodipodi:nodetypes="cccccccc" />
          </g>
        </g>
      </g>
    </g>
  </g>
</svg>
