<?xml version="1.0" encoding="UTF-8" standalone="no"?>
<!-- Created with Inkscape (http://www.inkscape.org/) -->

<svg
   xmlns:dc="http://purl.org/dc/elements/1.1/"
   xmlns:cc="http://creativecommons.org/ns#"
   xmlns:rdf="http://www.w3.org/1999/02/22-rdf-syntax-ns#"
   xmlns:svg="http://www.w3.org/2000/svg"
   xmlns="http://www.w3.org/2000/svg"
   xmlns:sodipodi="http://sodipodi.sourceforge.net/DTD/sodipodi-0.dtd"
   xmlns:inkscape="http://www.inkscape.org/namespaces/inkscape"
   width="210mm"
   height="297mm"
   viewBox="0 0 210 297"
   version="1.1"
   id="svg8"
   sodipodi:docname="main_character_walk_6.svg"
   inkscape:version="0.91 r13725"
   inkscape:export-filename="D:\Documents\GitHub\LIT230-Final-Project\Assets\Character\exports\mc_6.png"
   inkscape:export-xdpi="90"
   inkscape:export-ydpi="90">
  <defs
     id="defs2" />
  <sodipodi:namedview
     id="base"
     pagecolor="#ffffff"
     bordercolor="#666666"
     borderopacity="1.0"
     inkscape:pageopacity="0.0"
     inkscape:pageshadow="2"
     inkscape:zoom="0.49497475"
     inkscape:cx="839.09657"
     inkscape:cy="291.02003"
     inkscape:document-units="mm"
     inkscape:current-layer="layer1"
     showgrid="false"
     inkscape:window-width="1920"
     inkscape:window-height="1017"
     inkscape:window-x="1912"
     inkscape:window-y="-8"
     inkscape:window-maximized="1" />
  <metadata
     id="metadata5">
    <rdf:RDF>
      <cc:Work
         rdf:about="">
        <dc:format>image/svg+xml</dc:format>
        <dc:type
           rdf:resource="http://purl.org/dc/dcmitype/StillImage" />
        <dc:title />
      </cc:Work>
    </rdf:RDF>
  </metadata>
  <g
     inkscape:label="Layer 1"
     inkscape:groupmode="layer"
     id="layer1">
    <g
       id="g3356"
       transform="matrix(0.12379527,0,0,0.12379527,-0.03855682,260.1528)">
      <g
         transform="translate(0,2.6726953)"
         id="g3945">
        <path
           style="fill:#a05a2c;fill-opacity:1;stroke:#784421;stroke-width:3.51038146;stroke-miterlimit:4;stroke-dasharray:none;stroke-opacity:1"
           d="m 56.088002,156.32431 c 0,6.86091 -1.274178,12.7717 -0.003,19.24575 2.310922,11.77297 -8.135983,3.3236 -22.969256,3.3236 -14.763793,0 -13.041832,6.19483 -20.317479,-1.16398 C 7.629222,172.50146 6.1231763,158.90626 5.7459411,151.63564 5.1175284,139.52401 1.0812013,132.50322 2.2985239,120.68404 3.8611508,105.51227 2.019656,103.85448 37.099921,98.663716 c 11.943668,-1.767285 6.642481,10.313514 14.911948,15.871774 3.403257,2.2875 5.030764,16.05812 5.186251,19.86019 0.247164,6.04338 -1.109677,16.663 -1.109677,21.92863 z"
           id="path10-4-33"
           inkscape:connector-curvature="0"
           sodipodi:nodetypes="csssssssssc" />
        <path
           style="fill:#934d1b;fill-opacity:1;stroke:#78442e;stroke-width:3.51038146;stroke-miterlimit:4;stroke-dasharray:none;stroke-opacity:1"
           d="m 38.293733,157.49458 c 0.287274,3.26396 0.03748,6.11376 0.804691,9.15592 1.394857,5.5322 -1.993707,4.06956 -7.782829,4.50996 -5.762003,0.43834 -5.873005,1.08745 -9.020663,-2.19735 -2.236331,-2.33377 -3.39336,-8.75674 -3.845018,-12.20443 -0.752384,-5.74322 -2.62165,-8.96342 -2.641438,-14.62233 -0.0254,-7.2641 -0.813509,-7.99811 12.660248,-11.50906 4.587369,-1.19536 4.295644,-0.0397 7.755775,2.35901 1.424004,0.9872 1.3644,12.23899 1.584281,14.04316 0.349503,2.86769 0.264619,7.96006 0.485097,10.46511 z"
           id="path10-4-33-2"
           inkscape:connector-curvature="0"
           sodipodi:nodetypes="csssssssssc" />
      </g>
      <g
         id="g4174">
        <path
           inkscape:transform-center-y="35.047968"
           inkscape:transform-center-x="-8.7537034"
           style="fill:#3e1800;fill-opacity:1;stroke:#6a3a11;stroke-width:3.47566366;stroke-miterlimit:4;stroke-dasharray:none;stroke-opacity:1"
           d="m 118.44842,267.10943 c 13.05214,3.29471 -10.58143,6.22416 -19.243827,9.96264 -7.520476,3.24565 -20.942233,9.46135 -24.551432,3.10767 0,0 0.685423,-19.01678 -13.640976,-35.13738 -8.509939,-9.57571 -20.491706,-22.65097 -12.35281,-38.84491 6.281744,-12.49872 30.786946,-17.5298 42.141094,-13.17535 4.67275,1.79209 14.785791,20.49557 17.730971,28.88976 2.82401,8.04882 3.0952,5.45222 4.55729,13.94051 2.3207,12.77999 2.22535,15.943 5.35965,31.25707 z"
           id="path10-4-3-1-1"
           inkscape:connector-curvature="0"
           sodipodi:nodetypes="cscssssccc" />
        <path
           style="fill:#000000;fill-opacity:1;stroke:#3e3f40;stroke-width:3.51038146;stroke-linejoin:round;stroke-miterlimit:4;stroke-dasharray:none;stroke-opacity:1"
           d="m 72.829074,272.16353 c 18.135852,-1.82499 30.786776,-3.19546 45.790966,-4.76091 l 13.97185,3.56477 5.45146,5.71009 0.30879,9.8567 -15.3123,0.0959 -12.2468,0.32996 -14.158878,-0.37536 -5.209311,2.39214 -18.79145,0.46189 z"
           id="rect882-7-0"
           inkscape:connector-curvature="0"
           sodipodi:nodetypes="ccccccccccc" />
      </g>
      <path
         sodipodi:nodetypes="ssssssssss"
         inkscape:connector-curvature="0"
         id="path10-4"
         d="m 100.05995,156.00945 c 0,8.75485 -2.529531,20.91616 -0.977198,29.17735 2.821988,15.0229 0.768199,6.14298 -17.345542,6.14298 -18.028892,0 -23.847712,13.29191 -32.732412,3.90167 -6.312274,-6.67143 -0.229789,-29.40658 -0.690452,-38.68423 -0.767389,-15.455 -5.696375,-24.4139 -4.209833,-39.49572 1.90821,-19.359921 -0.340543,-21.475332 42.497934,-28.098997 14.585083,-2.255141 10.897302,8.350531 12.695905,20.253157 1.008548,6.67427 0.629412,19.13242 0.819288,23.98405 0.30183,7.71166 -0.0577,22.81974 -0.0577,22.81974 z"
         style="fill:#00abff;fill-opacity:1;stroke:#008aff;stroke-width:3.33212376;stroke-miterlimit:4;stroke-dasharray:none;stroke-opacity:1" />
      <g
         transform="matrix(1,0,0,0.98878177,-0.53453905,5.2755324)"
         id="g3830">
        <path
           style="fill:#ededed;fill-opacity:1;stroke:#acacac;stroke-width:3.90926695;stroke-linejoin:round;stroke-miterlimit:4;stroke-dasharray:none;stroke-opacity:1"
           d="m 125.59927,48.047747 c 0.0531,8.484682 -8.2519,34.201032 -11.72663,40.670479 -10.43859,19.435184 -10.98553,8.899008 -20.311781,8.899009 -7.89667,1e-6 1.722003,-4.328933 8.383821,-23.798929 4.14292,-12.108295 -2.205996,-38.600784 -1.24557,-54.857897 0.44565,-7.5435 4.75148,-10.4722425 17.22047,-15.6587122 17.96083,-5.5700131 24.741,19.8449072 21.64385,25.9262752 -5.58768,10.971607 -7.67539,7.538639 -13.96416,18.819775 z"
           id="path13"
           inkscape:connector-curvature="0"
           sodipodi:nodetypes="csssscsc" />
        <path
           style="fill:#00abff;fill-opacity:1;stroke:#008aff;stroke-width:3.33794665;stroke-miterlimit:4;stroke-dasharray:none;stroke-opacity:1"
           d="m 115.22578,48.630827 c 0,9.826875 -7.55411,34.000797 -11.89273,42.20403 -6.176352,11.677963 -11.492211,5.675278 -27.686382,5.675278 -16.118323,0 -19.580646,12.479745 -27.52381,1.939711 C 42.479516,90.961501 47.261465,80.828564 41.416072,72.411934 27.929621,52.993129 7.5122426,23.490501 75.646668,10.263963 88.686126,7.7326865 113.63606,5.5180891 122.66423,13.479185 c 3.71548,3.276346 2.59254,5.311879 2.76229,10.757585 0.26984,8.655901 -10.20074,16.852126 -10.20074,24.394057 z"
           id="path10"
           inkscape:connector-curvature="0"
           sodipodi:nodetypes="sssssssss" />
      </g>
      <g
         transform="matrix(0.99739231,0.07217049,-0.07217049,0.99739231,15.052256,-4.7406311)"
         inkscape:transform-center-y="38.758129"
         inkscape:transform-center-x="8.6886553"
         id="g4170">
        <path
           style="fill:#552200;fill-opacity:1;stroke:#784421;stroke-width:3.47566366;stroke-miterlimit:4;stroke-dasharray:none;stroke-opacity:1"
           d="m 89.99063,279.49785 c 10.30668,8.15712 -12.66302,1.24264 -22.372459,1.06163 -8.429477,-0.15716 -27.650117,0.69425 -27.864659,-6.36794 0,0 6.363504,-19.54012 5.448445,-37.62445 -0.660046,-13.04461 -4.619067,-27.89132 10.644301,-38.92061 11.780514,-8.51258 33.84502,-1.49117 42.09018,6.91918 3.393242,3.46128 -2.527103,28.04225 -3.098845,33.74643 -0.908731,9.06672 -0.35002,3.75012 -1.168876,11.24115 -3.126558,14.7026 -2.916718,14.10874 -3.678135,29.94459 z"
           id="path10-4-3-1"
           inkscape:connector-curvature="0"
           sodipodi:nodetypes="cscsssscc" />
        <path
           style="fill:#000000;fill-opacity:1;stroke:#565757;stroke-width:3.51038146;stroke-linejoin:round;stroke-miterlimit:4;stroke-dasharray:none;stroke-opacity:1"
           d="m 38.730032,277.70499 46.314494,-3.37551 13.53714,3.97411 4.770114,5.85828 -0.85928,9.83963 -15.31011,-0.36342 -12.275049,-0.038 -14.101876,-0.79881 -5.488109,2.22962 -18.829539,-0.10265 z"
           id="rect882-7"
           inkscape:connector-curvature="0"
           sodipodi:nodetypes="ccccccccccc" />
      </g>
      <path
         sodipodi:nodetypes="cccccccc"
         inkscape:connector-curvature="0"
         id="rect882"
         d="m 47.749585,194.05577 35.353988,-3.01545 19.055467,1.73389 -0.0811,10.40332 -8.780372,-1.35816 -20.897508,0.5289 -24.245049,3.31699 z"
         style="fill:#000000;fill-opacity:1;stroke:#565757;stroke-width:3.51038146;stroke-linejoin:round;stroke-miterlimit:4;stroke-dasharray:none;stroke-opacity:1" />
      <path
         sodipodi:nodetypes="ccccc"
         inkscape:connector-curvature="0"
         id="rect887"
         d="m 90.15666,190.55579 11.63635,0 0,13.18609 -11.736667,-1.0549 z"
         style="fill:#000000;fill-opacity:1;stroke:#e3e400;stroke-width:4.2162261;stroke-linejoin:round;stroke-miterlimit:4;stroke-dasharray:none;stroke-opacity:1" />
      <g
         transform="matrix(0.9906374,-0.13651942,0.13651942,0.9906374,-16.496198,11.496669)"
         inkscape:transform-center-y="42.873241"
         inkscape:transform-center-x="-39.735324"
         id="g3970">
        <path
           style="fill:#00abff;fill-opacity:1;stroke:#008aff;stroke-width:3.51038146;stroke-miterlimit:4;stroke-dasharray:none;stroke-opacity:1"
           d="m 106.6479,188.6012 c 2.05928,7.84462 0.43765,11.3128 -4.2608,14.35512 -4.192194,2.7145 -18.619491,7.38456 -21.263798,2.13277 -3.735242,-7.41849 -10.379816,-17.4257 -13.92155,-23.82414 -6.692877,-10.80393 -15.017795,-18.9262 -13.216204,-41.2244 1.787809,-22.12757 3.474347,-27.22333 9.416215,-30.23041 12.479434,-6.31568 20.804921,-0.85367 30.725099,7.67585 4.082608,3.5103 -5.388879,28.97457 -5.10251,34.55145 0.455171,8.86436 0.656724,12.25189 5.16854,18.7169 z"
           id="path10-4-3"
           inkscape:connector-curvature="0"
           sodipodi:nodetypes="csscsssssc"
           inkscape:transform-center-x="0.1368492"
           inkscape:transform-center-y="33.312642" />
        <g
           id="g3820"
           transform="matrix(0.63315859,-0.76999848,0.7724915,0.62222086,-96.718157,124.68586)"
           inkscape:transform-center-x="-21.685936"
           inkscape:transform-center-y="7.7153311">
          <g
             id="g3826">
            <path
               style="fill:#4d6090;fill-opacity:1;stroke:#808080;stroke-width:3.53023887;stroke-linejoin:round;stroke-miterlimit:4;stroke-dasharray:none;stroke-opacity:1"
               d="m 109.79675,230.82052 -2.14655,8.83207 c -5.74535,6.33371 -10.079525,11.8456 -17.258263,22.6471 -2.946986,2.14144 -5.477257,3.13943 -7.476049,2.67912 l 4.224842,-7.10817 c 2.622089,-5.04506 3.913544,-9.00002 9.547244,-14.99346 1.320466,-4.74815 1.364722,-8.4903 1.89596,-11.92935 3.034816,3.79358 6.385616,1.62258 11.212816,-0.12731 z"
               id="rect887-9-6"
               inkscape:connector-curvature="0"
               sodipodi:nodetypes="cccccccc" />
            <path
               style="fill:#4d6090;fill-opacity:1;stroke:#808080;stroke-width:3.53023887;stroke-linejoin:round;stroke-miterlimit:4;stroke-dasharray:none;stroke-opacity:1"
               d="m 111.32691,212.07895 1.17692,3.11154 0.0536,3.18109 -2.46529,0.39647 -6.57802,-0.5934 2.03339,-1.65983 0.85638,-2.40247 c -0.5445,-6.67907 -1.71248,-11.51657 4.92297,-2.03338 z"
               id="rect887-9-4"
               inkscape:connector-curvature="0"
               sodipodi:nodetypes="cccccccc" />
            <path
               style="fill:#aa0000;fill-opacity:1;stroke:#550000;stroke-width:3.53023887;stroke-miterlimit:4;stroke-dasharray:none;stroke-opacity:1"
               d="m 86.99425,219.09395 c -7.068107,-4.66413 -35.624956,-9.98536 -40.276825,-10.83525 -13.361581,-2.44117 -10.036575,2.19231 -13.557123,4.87982 -3.513164,2.68188 -1.171223,-5.93275 0.195542,-7.32099 2.368467,-2.40566 0.749414,-14.52319 6.883295,-3.83858 0,0 3.978763,2.42736 14.227037,3.27789 6.405844,0.53166 23.746025,4.42542 35.601421,9.27213 7.852388,3.21018 11.239583,4.88734 14.831773,1.80154 4.73057,-4.06372 7.90799,-0.61475 7.24317,6.33498 0,0 0.11359,4.19201 -7.06014,13.48207 -2.56036,3.3157 -5.788743,1.8944 -6.845345,-8.20886 -0.928876,-5.72566 -11.242805,-8.84475 -11.242805,-8.84475 z"
               id="path10-8"
               inkscape:connector-curvature="0"
               sodipodi:nodetypes="cssssssssscc" />
            <path
               style="fill:#4d6090;fill-opacity:1;stroke:#808080;stroke-width:3.53023887;stroke-linejoin:round;stroke-miterlimit:4;stroke-dasharray:none;stroke-opacity:1"
               d="m 71.777463,201.01527 2.863978,7.11556 -3.546694,8.91697 -6.602465,1.50542 -10.156111,-2.94718 -2.805593,-7.60499 2.905691,-7.78108 z"
               id="rect887-9"
               inkscape:connector-curvature="0"
               sodipodi:nodetypes="cccccccc" />
          </g>
        </g>
      </g>
    </g>
  </g>
</svg>
